<?xml version="1.0" standalone="no"?>
<!DOCTYPE svg PUBLIC "-//W3C//DTD SVG 1.1//EN" "http://www.w3.org/Graphics/SVG/1.1/DTD/svg11.dtd" >
<svg>
<metadata>
Created by FontForge 20090914 at Wed Oct 19 02:02:53 2011
 By www-data
(c) by Abolfazl Seilsepour - +98 912 591 3420  -  seilsepor@yahoo.com
</metadata>
<defs>
<font id="FarYekan" horiz-adv-x="0" >
  <font-face 
    font-family="Far.Yekan"
    font-weight="400"
    font-stretch="normal"
    units-per-em="2048"
    panose-1="0 0 4 0 0 0 0 0 0 0"
    ascent="1638"
    descent="-410"
    bbox="-288.001 -1044 2334 2064"
    underline-thickness="100"
    underline-position="-850"
    unicode-range="U+0020-U+FEFC"
  />
<missing-glyph horiz-adv-x="1024" 
d="M128 0v1360h768v-1360h-768zM256 128h512v1104h-512v-1104z" />
    <glyph glyph-name="uE818" unicode="&#x651;&#x64b;" 
d="M546 1523c0 -41.333 -11.667 -76.333 -35 -105c-24.667 -31.333 -57 -47 -97 -47c-30 0 -66.667 19 -110 57c-31.333 -38 -68 -57 -110 -57c-38 0 -68.333 16.333 -91 49c-19.333 28.667 -29 63 -29 103h45c0 -66.667 27 -100 81 -100c53.333 0 81 33.333 83 100h50
c0 -66.667 27.667 -100 83 -100c54 0 81.333 33.333 82 100h48zM483 1927l-316 -172l-27 50l315 174zM482 1810l-315 -168l-28 47l315 173z" />
    <glyph glyph-name="uFC5E" unicode="&#x651;&#x64c;" arabic-form="isolated" 
d="M577 1516c0 -41.333 -11.667 -76.333 -35 -105c-24.667 -31.333 -57 -47 -97 -47c-30 0 -66.667 19 -110 57c-31.333 -38 -68 -57 -110 -57c-38 0 -68.333 16.333 -91 49c-19.333 28.667 -29 63 -29 103h45c0 -66.667 27 -100 81 -100c53.333 0 81 33.333 83 100h50
c0 -66.667 27.667 -100 83 -100c54 0 81.333 33.333 82 100h48zM548 1937c0 -60.667 -16.332 -99.667 -48.999 -117l-283 -151l-28 48c34 22 55 39.667 63 53c0 22.667 -15 34 -45 34c-19.333 0 -35.666 -3.66699 -48.999 -11l-20 36c37.333 12.667 65.666 19 84.999 19
c38 0 62 -26 72 -78l77 45c-52.667 30 -79 68 -79 114c0 60 29 101.333 87 124c19.333 7.33301 31.666 11 36.999 11c36 0 67 -12.333 93 -37s39 -54.667 39 -90zM502.001 1938c0 22 -8.83301 40.667 -26.5 56s-37.5 23 -59.5 23c-52.667 0 -79 -29 -79 -87
c0 -52 28.333 -78 85 -78c17.333 0 35 9.83301 53 29.5s27 38.5 27 56.5z" />
    <glyph glyph-name="uFC5F" unicode="&#x651;&#x64d;" arabic-form="isolated" 
d="M566 1946c0 -41.333 -11.667 -76.333 -35 -105c-24.667 -31.333 -57 -47 -97 -47c-30 0 -66.667 19 -110 57c-31.333 -38 -68 -57 -110 -57c-38 0 -68.333 16.333 -91 49c-19.333 28.667 -29 63 -29 103h45c0 -66.667 27 -100 81 -100c53.333 0 81 33.333 83 100h50
c0 -66.667 27.667 -100 83 -100c54 0 81.333 33.333 82 100h48zM472 1670l-315 -169l-27 47l315 174zM472 1526l-315 -169l-27 48l315 175z" />
    <glyph glyph-name="uFC60" unicode="&#x651;&#x64e;" arabic-form="isolated" 
d="M566 1482c0 -41.333 -11.667 -76.333 -35 -105c-24.667 -31.333 -57 -47 -97 -47c-30 0 -66.667 19 -110 57c-31.333 -38 -68 -57 -110 -57c-38 0 -68.333 16.333 -91 49c-19.333 28.667 -29 63 -29 103h45c0 -66.667 27 -100 81 -100c53.333 0 81 33.333 83 100h50
c0 -66.667 27.667 -100 83 -100c54 0 81.333 33.333 82 100h48zM483 1755l-315 -168l-28 47l315 176z" />
    <glyph glyph-name="uFC61" unicode="&#x651;&#x64f;" arabic-form="isolated" 
d="M587 1493c0 -41.333 -11.667 -76.333 -35 -105c-24.667 -31.333 -57 -47 -97 -47c-30 0 -66.667 19 -110 57c-31.333 -38 -68 -57 -110 -57c-38 0 -68.333 16.333 -91 49c-19.333 28.667 -29 63 -29 103h45c0 -66.667 27 -100 81 -100c53.333 0 81 33.333 83 100h50
c0 -66.667 27.667 -100 83 -100c54 0 81.333 33.333 82 100h48zM496 1868c0 -59.333 -16.667 -98.001 -50 -116.001l-227 -121l-28 47l126 70c-52 30 -78 67.667 -78 113c0 60.667 30 102.334 90 125.001c17.333 6.66699 28.333 10 33 10c36.667 0 68.167 -12.333 94.5 -37
s39.5 -55 39.5 -91zM449 1870c0 22 -8.83203 40.5 -26.499 55.5s-37.834 22.5 -60.501 22.5c-52 0 -78 -28.667 -78 -86c0 -52.667 28.667 -79 86 -79c17.333 0 34.833 10 52.5 30s26.5 39 26.5 57z" />
    <glyph glyph-name="uFC62" unicode="&#x651;&#x650;" arabic-form="isolated" 
d="M556 1789c0 -41.333 -11.667 -76.333 -35 -105c-24.667 -31.333 -57 -47 -97 -47c-30 0 -66.667 19 -110 57c-31.333 -38 -68 -57 -110 -57c-38 0 -68.333 16.333 -91 49c-19.333 28.667 -29 63 -29 103h45c0 -66.667 27 -100 81 -100c53.333 0 81 33.333 83 100h50
c0 -66.667 27.667 -100 83 -100c54 0 81.333 33.333 82 100h48zM478 1534l-314 -169l-29 48l315 175z" />
    <glyph glyph-name="uFDF2" unicode="&#xfedf;&#xfee0;&#xfeea;" horiz-adv-x="2253" arabic-form="isolated" 
d="M1638 1415c0 -41.333 -11.666 -76.333 -34.999 -105c-25.333 -30.667 -58 -46 -98 -46c-30 0 -66.667 18.667 -110 56c-30.667 -37.333 -65.334 -56 -104.001 -56c-78 0 -120 50.333 -126 151h45c0 -66.667 27 -100 81 -100c53.333 0 81 33.333 83 100h50
c0 -66.667 28 -100 84 -100c54 0 81 33.333 81 100h49zM2123 275c0 -86.667 -25.834 -154.168 -77.501 -202.501s-121.5 -72.5 -209.5 -72.5h-173c-117.333 0 -204.666 23.333 -261.999 70c-43.333 -36 -82.333 -57.333 -117 -64c-22 -4 -94 -6 -216 -6
c-78.667 0 -136 10.333 -172 31c-18 10.667 -80.667 65.667 -188 165c-68 -144 -177.667 -216 -329 -216c-99.333 0 -181.333 32.333 -246 97s-97 146.667 -97 246c0 104 69.667 225.667 209 365l-51 58l121 122l539 -573c45.333 -48 76 -77 92 -87
c32.667 -20 109.334 -30 230.001 -30c58 0 96 16 114 48c12.667 22.667 19 65.334 19 128.001v800h180v-836c0 -65.333 19.667 -106 59 -122c26.667 -10.667 119 -16 277 -16c53.333 0 88.666 14.333 105.999 43c10 16 15 59.667 15 131v800h177v-879zM553 310.999
c0 44 -11.332 77 -33.999 99l-145 144c-56 -52.667 -91 -88 -105 -106c-35.333 -45.333 -53 -91 -53 -137c0 -46.667 15.667 -84.5 47 -113.5s70.666 -43.5 117.999 -43.5c46 0 86.167 14.833 120.5 44.5s51.5 67.167 51.5 112.5z" />
    <glyph glyph-name="uFEF5" unicode="&#xfedf;&#xfe82;" horiz-adv-x="1054" arabic-form="isolated" 
d="M935 275c0 -86.667 -25.832 -154.167 -77.499 -202.5s-121.167 -72.5 -208.5 -72.5h-169c-234 0 -351 91.667 -351 275v879h180v-800c0 -74 10.167 -121.5 30.5 -142.5s67.166 -31.5 140.499 -31.5h158c52.667 0 88 14.333 106 43c10 16 15 59.667 15 131v800h176v-879z
M621.001 1360h-451.002c-20 0 -55 -3 -105 -9c-28 -3.33301 -48.333 -10 -61 -20c-16 -12.667 -36.333 -46 -61 -100l-164 64c43.333 92.667 82 152.667 116 180c40.667 32.667 119.334 53 236.001 61c35.333 2.66699 121 4 257 4c50.667 0 128.334 -1 233.001 -3v-177z" />
    <glyph glyph-name="uFEF6" unicode="&#xfee0;&#xfe82;" horiz-adv-x="1054" arabic-form="final" 
d="M1084 0c-104.667 0 -186.667 39.333 -246 118c-60 -78.667 -141 -118 -243 -118h-165c-234 0 -351 91.667 -351 275v879h176v-800c0 -80.667 11.333 -132 34 -154c13.333 -13.333 60.333 -20 141 -20h154c52 0 87 14.333 105 43c10.667 17.333 16 61 16 131v800h180v-818
c0 -104 66.333 -156 199 -156v-180zM555 1426l-451.001 0.000976562c-20.667 0 -55.667 -3 -105 -9c-28.667 -2.66699 -49.334 -9.33398 -62.001 -20.001c-15.333 -12 -35.666 -45.333 -60.999 -100l-164 64c44 92.667 83 152.667 117 180
c40.667 32.667 119.334 53 236.001 61c34.667 2.66699 120 4 256 4c50.667 0 128.667 -0.666992 234 -2v-178z" />
    <glyph glyph-name="uFEF7" unicode="&#xfedf;&#xfe84;" horiz-adv-x="1054" arabic-form="isolated" 
d="M935 275c0 -86.667 -25.832 -154.167 -77.499 -202.5s-121.167 -72.5 -208.5 -72.5h-169c-234 0 -351 91.667 -351 275v879h180v-800c0 -74 10.167 -121.5 30.5 -142.5s67.166 -31.5 140.499 -31.5h158c52.667 0 88 14.333 106 43c10 16 15 59.667 15 131v800h176v-879z
M347.001 1419l-246 -124.001l-20 40l84 48c-50 25.333 -75 62 -75 110c0 32.667 11.5 60.834 34.5 84.501s50.833 35.5 83.5 35.5c16 0 39 -6.33301 69 -19l-17 -36c-14.667 8.66699 -32.667 13 -54 13c-46.667 0 -70 -27.333 -70 -82c0 -45.333 22.333 -68 67 -68
c36 0 76.667 14 122 42z" />
    <glyph glyph-name="uFEF8" unicode="&#xfee0;&#xfe84;" horiz-adv-x="1054" arabic-form="final" 
d="M1084 0c-104.667 0 -186.667 39.333 -246 118c-60 -78.667 -141 -118 -243 -118h-165c-234 0 -351 91.667 -351 275v879h176v-800c0 -80.667 11.333 -132 34 -154c13.333 -13.333 60.333 -20 141 -20h154c52 0 87 14.333 105 43c10.667 17.333 16 61 16 131v800h180v-818
c0 -104 66.333 -156 199 -156v-180zM311 1412l-247 -124.001l-20 40l84 48c-50 25.333 -75 62 -75 110c0 32.667 11.667 60.834 35 84.501s51.333 35.5 84 35.5c16 0 39 -6.33301 69 -19l-18 -36c-14 8.66699 -32 13 -54 13c-46.667 0 -70 -27.333 -70 -82
c0 -45.333 22.667 -68 68 -68c36 0 76.333 14 121 42z" />
    <glyph glyph-name="uFEF9" unicode="&#xfedf;&#xfe88;" horiz-adv-x="1054" arabic-form="isolated" 
d="M935 275c0 -86.667 -25.832 -154.167 -77.499 -202.5s-121.167 -72.5 -208.5 -72.5h-169c-234 0 -351 91.667 -351 275v879h180v-800c0 -74 10.167 -121.5 30.5 -142.5s67.166 -31.5 140.499 -31.5h158c52.667 0 88 14.333 106 43c10 16 15 59.667 15 131v800h176v-879z
M443.001 -330l-246 -123.999l-20 40l84 47c-50 26 -75 62.667 -75 110c0 33.333 11.5 61.666 34.5 84.999s50.833 35 83.5 35c16 0 39 -6 69 -18l-17 -37c-14.667 9.33301 -32.667 14 -54 14c-46.667 0 -70 -27.333 -70 -82c0 -45.333 22.333 -68 67 -68
c36 0 76.667 13.667 122 41z" />
    <glyph glyph-name="uFEFA" unicode="&#xfee0;&#xfe88;" horiz-adv-x="1054" arabic-form="final" 
d="M1084 0c-104.667 0 -186.667 39.333 -246 118c-60 -78.667 -141 -118 -243 -118h-165c-234 0 -351 91.667 -351 275v879h176v-800c0 -80.667 11.333 -132 34 -154c13.333 -13.333 60.333 -20 141 -20h154c52 0 87 14.333 105 43c10.667 17.333 16 61 16 131v800h180v-818
c0 -104 66.333 -156 199 -156v-180zM369 -323l-245.999 -124.001l-20 40l84 48c-50 26 -75 62.667 -75 110c0 32.667 11.667 60.834 35 84.501s51.333 35.5 84 35.5c15.333 0 38 -6.33301 68 -19l-17 -36c-14 9.33301 -32 14 -54 14c-46.667 0 -70 -27.667 -70 -83
c0 -44.667 22.667 -67 68 -67c35.333 0 75.666 13.667 120.999 41z" />
    <glyph glyph-name="uFEFB" unicode="&#xfedf;&#xfe8e;" horiz-adv-x="1054" arabic-form="isolated" 
d="M935 275c0 -86.667 -25.832 -154.167 -77.499 -202.5s-121.167 -72.5 -208.5 -72.5h-169c-234 0 -351 91.667 -351 275v879h180v-800c0 -74 10.167 -121.5 30.5 -142.5s67.166 -31.5 140.499 -31.5h158c52.667 0 88 14.333 106 43c10 16 15 59.667 15 131v800h176v-879z
" />
    <glyph glyph-name="uFEFC" unicode="&#xfee0;&#xfe8e;" horiz-adv-x="1054" arabic-form="final" 
d="M1084 0c-104.667 0 -186.667 39.333 -246 118c-60 -78.667 -141 -118 -243 -118h-165c-234 0 -351 91.667 -351 275v879h176v-800c0 -80.667 11.333 -132 34 -154c13.333 -13.333 60.333 -20 141 -20h154c52 0 87 14.333 105 43c10.667 17.333 16 61 16 131v800h180v-818
c0 -104 66.333 -156 199 -156v-180z" />
    <glyph glyph-name="u0652_u064E.liga" unicode="&#x652;&#x64e;" horiz-adv-x="1" 
d="M170 1352l2 -289l-80 2v287h78z" />
    <glyph glyph-name="u0652_u064B.liga" unicode="&#x652;&#x64b;" horiz-adv-x="1" 
d="M582 1059c0 -30.667 -11.168 -56 -33.501 -76s-49.166 -30 -80.499 -30c-33.333 0 -62 9 -86 27c-26 20 -39 46.333 -39 79c0 66.667 38 100 114 100c83.333 0 125 -33.333 125 -100zM236.999 1059c0 -30.667 -11.168 -56 -33.501 -76s-49.166 -30 -80.499 -30
c-33.333 0 -62 9 -86 27c-26 20 -39 46.333 -39 79c0 66.667 38 100 114 100c83.333 0 125 -33.333 125 -100z" />
    <glyph glyph-name="u0652_u064D.liga" unicode="&#x652;&#x64d;" horiz-adv-x="1" 
d="M873 -637c0 -30.667 -11.168 -56 -33.501 -76s-49.166 -30 -80.499 -30c-33.333 0 -62 9 -86 27c-26 20 -39 46.333 -39 79c0 66.667 38 100 114 100c83.333 0 125 -33.333 125 -100zM527.999 -637c0 -30.667 -11.168 -56 -33.501 -76s-49.166 -30 -80.499 -30
c-33.333 0 -62 9 -86 27c-26 20 -39 46.333 -39 79c0 66.667 38 100 114 100c83.333 0 125 -33.333 125 -100z" />
    <glyph glyph-name="u0622" unicode="&#x622;" horiz-adv-x="669" arabic-form="isolated" 
d="M676 1253h-451.002c-20 0 -55 -3 -105 -9c-28 -3.33301 -48.333 -10 -61 -20c-16 -12.667 -36.667 -46 -62 -100l-163 64c43.333 92.667 82 152.667 116 180c40.667 32 119.334 52.333 236.001 61c35.333 2.66699 121 4 257 4c50.667 0 128.334 -1 233.001 -3v-177z
M429.998 0h-175v1154h175v-1154z" />
    <glyph glyph-name="u0623" unicode="&#x623;" horiz-adv-x="575" arabic-form="isolated" 
d="M374 0h-175v1154h175v-1154zM419 1389l-246 -123.001l-20 40l83 47c-50 26 -75 62.667 -75 110c0 32.667 11.667 60.834 35 84.501s51.333 35.5 84 35.5c16 0 39 -6.33301 69 -19l-18 -36c-14 9.33301 -31.667 14 -53 14c-46.667 0 -70 -27.667 -70 -83
c0 -44.667 22.333 -67 67 -67c36 0 76.333 13.667 121 41z" />
    <glyph glyph-name="u0624" unicode="&#x624;" horiz-adv-x="893" arabic-form="isolated" 
d="M453 890l-303.999 -154l-25 50l104 57c-62 32 -93 75.667 -93 131c0 42.667 13.833 79.167 41.5 109.5s62.5 45.5 104.5 45.5c16.667 0 45.667 -7.66699 87 -23l-23 -47c-16.667 12.667 -35 19 -55 19c-28.667 0 -52.334 -10 -71.001 -30s-28 -44.333 -28 -73
c0 -54 26.333 -81 79 -81c37.333 0 89.333 17.333 156 52zM803.001 -23c0 -124 -45.334 -227.333 -136.001 -310c-88 -81.333 -194.333 -122 -319 -122h-233l-22 180h227c82.667 0 152.667 25 210 75c60 52 90 118.667 90 200c-145.333 0 -252.666 19.667 -321.999 59
c-93.333 52 -140 145 -140 279c0 124 20.333 215.667 61 275c49.333 72 133.333 108 252 108c144 0 240 -55 288 -165c29.333 -67.333 44 -185 44 -353v-226zM621 180v184.999c0 117.333 -47 176 -141 176c-91.333 0 -137 -61.667 -137 -185
c0 -81.333 28.667 -133.666 86 -156.999c30.667 -12.667 94.667 -19 192 -19z" />
    <glyph glyph-name="u0625" unicode="&#x625;" horiz-adv-x="575" arabic-form="isolated" 
d="M374 0h-175v1154h175v-1154zM448 -345l-245.999 -124.001l-20 40l84 48c-50 25.333 -75 62 -75 110c0 32.667 11.667 60.834 35 84.501s51.333 35.5 84 35.5c15.333 0 38 -6.33301 68 -19l-17 -36c-14 8.66699 -32 13 -54 13c-46.667 0 -70 -27.333 -70 -82
c0 -45.333 22.667 -68 68 -68c35.333 0 75.666 14 120.999 42z" />
    <glyph glyph-name="u0626" unicode="&#x626;" horiz-adv-x="1289" arabic-form="isolated" 
d="M444 778l-303.999 -153.999l-25 50l104 56c-60 33.333 -90 76.666 -90 129.999c0 44 13 81 39 111s61 45 105 45c16 0 44.667 -7.33301 86 -22l-23 -48c-20 11.333 -38.333 17 -55 17c-28 0 -51.333 -10 -70 -30s-28 -44.333 -28 -73c0 -53.333 25.333 -80 76 -80
c41.333 0 94.666 17 159.999 51zM1225 9.00098c0 -136.667 -39.001 -247.334 -117.001 -332.001c-81.333 -88 -189.333 -132 -324 -132h-279c-125.333 0 -228.666 46.667 -309.999 140c-77.333 88.667 -116 196.667 -116 324v372h169v-392c0 -81.333 29 -147 87 -197
c54.667 -47.333 123.334 -71 206.001 -71h232c66 0 128 23.333 186 70c62.667 49.333 94 106 94 170c0 59.333 -21.333 95.666 -64 108.999c-37.333 11.333 -155.333 17.333 -354 18v308c0 91.333 30.167 168 90.5 230s136.166 93 227.499 93h216l7 -169h-216
c-70 0 -116.333 -33.667 -139 -101c-11.333 -35.333 -17 -98.666 -17 -189.999c174.667 -3.33301 283.667 -17.666 327 -42.999c62.667 -35.333 94 -104.333 94 -207z" />
    <glyph glyph-name="u0627" unicode="&#x627;" horiz-adv-x="575" arabic-form="isolated" 
d="M374 0h-175v1154h175v-1154z" />
    <glyph glyph-name="u0628" unicode="&#x628;" horiz-adv-x="1606" arabic-form="isolated" 
d="M1541 293c0 -76 -23.999 -143 -71.999 -201c-50.667 -61.333 -113.334 -92 -188.001 -92h-950c-76.667 0 -139.667 30 -189 90c-46 56 -69 123.667 -69 203v272h180v-247c0 -50.667 9.5 -86.334 28.5 -107.001s53.5 -31 103.5 -31h840c50 0 84.833 10.333 104.5 31
s29.5 56.334 29.5 107.001v247h182v-272zM978.001 -326c0 -34.667 -12.333 -64.5 -37 -89.5s-54 -37.5 -88 -37.5c-89.333 0 -134 42.333 -134 127c0 70 43 105 129 105c86.667 0 130 -35 130 -105z" />
    <glyph glyph-name="u0629" unicode="&#x629;" horiz-adv-x="809" arabic-form="isolated" 
d="M466 1093l-303 -153l-25 49l103 56c-60 33.333 -90 77 -90 131c0 44.667 13.167 81.667 39.5 111s61.166 44 104.499 44c16.667 0 45.334 -7.33301 86.001 -22l-22 -48c-20 11.333 -38.333 17 -55 17c-66 0 -99 -34 -99 -102c0 -54 25.333 -81 76 -81
c42 0 95.333 17 160 51zM758 305c0 -93.333 -35.666 -171.334 -106.999 -234.001c-68.667 -60.667 -150.334 -91 -245.001 -91c-98 0 -178.5 33.5 -241.5 100.5s-94.5 149.833 -94.5 248.5c0 102.667 68.333 222.334 205 359.001l-52 58l122 122l329 -340
c56 -58 84 -132.333 84 -223zM579.001 315.999c0 36.667 -9.66699 65 -29 85l-145 153c-107.333 -102 -161 -183 -161 -243c0 -46 17.333 -83.833 52 -113.5s75.667 -44.5 123 -44.5s85.833 15.333 115.5 46s44.5 69.667 44.5 117z" />
    <glyph glyph-name="u062A" unicode="&#x62a;" horiz-adv-x="1606" arabic-form="isolated" 
d="M1064 865c0 -30.667 -11.168 -56.5 -33.501 -77.5s-49.166 -31.5 -80.499 -31.5c-83.333 0 -125 36.333 -125 109c0 65.333 38 98 114 98c83.333 0 125 -32.667 125 -98zM718.999 865c0 -30.667 -11 -56.5 -33 -77.5s-48.667 -31.5 -80 -31.5c-84 0 -126 36.333 -126 109
c0 65.333 38 98 114 98c83.333 0 125 -32.667 125 -98zM1541 293c0 -76 -23.999 -143 -71.999 -201c-50.667 -61.333 -113.334 -92 -188.001 -92h-950c-76.667 0 -139.667 30 -189 90c-46 56 -69 123.667 -69 203v272h180v-247c0 -50.667 9.5 -86.334 28.5 -107.001
s53.5 -31 103.5 -31h840c50 0 84.833 10.333 104.5 31s29.5 56.334 29.5 107.001v247h182v-272z" />
    <glyph glyph-name="u062B" unicode="&#x62b;" horiz-adv-x="1606" arabic-form="isolated" 
d="M901 1054c0 -31.333 -11.5 -57.168 -34.5 -77.501s-50.167 -30.5 -81.5 -30.5c-33.333 0 -62 9.33301 -86 28c-26 20.667 -39 47.334 -39 80.001c0 66.667 38.333 100 115 100c84 0 126 -33.333 126 -100zM1076 799.998c0 -30.667 -11.333 -56.501 -34 -77.501
s-49.667 -31.5 -81 -31.5c-33.333 0 -62 9.66699 -86 29c-26 20.667 -39 47.334 -39 80.001c0 66 38 99 114 99c84 0 126 -33 126 -99zM730 799.997c0 -30 -11.332 -55.668 -33.999 -77.001s-49.334 -32 -80.001 -32c-33.333 0 -62 9.66699 -86 29
c-26 20.667 -39 47.334 -39 80.001c0 66 38 99 114 99c83.333 0 125 -33 125 -99zM1541 292.996c0 -76 -23.999 -143 -71.999 -201c-50.667 -61.333 -113.334 -92 -188.001 -92h-950c-76.667 0 -139.667 30 -189 90c-46 56 -69 123.667 -69 203v272h180v-247
c0 -50.667 9.5 -86.334 28.5 -107.001s53.5 -31 103.5 -31h840c50 0 84.833 10.333 104.5 31s29.5 56.334 29.5 107.001v247h182v-272z" />
    <glyph glyph-name="u062C" unicode="&#x62c;" horiz-adv-x="1104" arabic-form="isolated" 
d="M1129 -868l-494.001 0.00195312c-168.667 0 -308.667 51.667 -420 155c-114.667 105.333 -172 241.666 -172 408.999c0 197.333 87.667 344.666 263 441.999l550 303c-26.667 50 -67 79.667 -121 89c-49.333 8 -208 12.333 -476 13l-23 176h435
c250.667 0 376.334 -123.667 377.001 -371l-593 -332c-160.667 -90 -241 -201.333 -241 -334c0 -96.667 38 -183 114 -259s162.667 -114 260 -114h525zM814.999 -335.998c0 -35.333 -11.833 -65.333 -35.5 -90s-53.167 -37 -88.5 -37c-38.667 0 -70.667 10.667 -96 32
c-27.333 22.667 -41 53 -41 91c0 74.667 43.667 112 131 112c86.667 0 130 -36 130 -108z" />
    <glyph glyph-name="u062D" unicode="&#x62d;" horiz-adv-x="1104" arabic-form="isolated" 
d="M1131 -868h-493c-192 0 -345.333 67.667 -460 203c-88.667 103.333 -133 220.333 -133 351v39c0.666992 2.66699 2.33398 15.667 5.00098 39c20.667 165.333 107 290 259 374l551 303c-40.667 72.667 -155.334 109 -344.001 109h-56l-196 -4v-3l-36 1
c8.66699 1.33301 20.667 2 36 2l-25 173h435c246.667 0 372 -123.667 376 -371l-592 -332c-161.333 -90 -242 -201.333 -242 -334c0 -95.333 38.333 -181.333 115 -258s163 -115 259 -115h525z" />
    <glyph glyph-name="u062E" unicode="&#x62e;" horiz-adv-x="1104" arabic-form="isolated" 
d="M758 1045c0 -35.333 -12.167 -65.167 -36.5 -89.5s-53.833 -36.5 -88.5 -36.5c-92 0 -138 42 -138 126c0 70.667 43.667 106 131 106c88 0 132 -35.333 132 -106zM1129 -868.001l-494.001 0.00195312c-168.667 0 -308.667 51.667 -420 155
c-114.667 105.333 -172 241.666 -172 408.999c0 197.333 87.667 344.666 263 441.999l550 303c-26.667 50 -67 79.667 -121 89c-49.333 8 -208 12.333 -476 13l-23 176h435c250.667 0 376.334 -123.667 377.001 -371l-593 -332c-160.667 -90 -241 -201.333 -241 -334
c0 -96.667 38 -183 114 -259s162.667 -114 260 -114h525z" />
    <glyph glyph-name="u062F" unicode="&#x62f;" horiz-adv-x="986" arabic-form="isolated" 
d="M944 235c0 -72 -27 -130 -81 -174c-50 -40.667 -111.667 -61 -185 -61h-558l-25 180h571c66.667 0 100 23.333 100 70c0 24 -9 45.667 -27 65l-405 431l121 122l405 -429c56 -59.333 84 -127.333 84 -204z" />
    <glyph glyph-name="u0630" unicode="&#x630;" horiz-adv-x="986" arabic-form="isolated" 
d="M590 1169c0 -35.333 -12 -65.167 -36 -89.5s-53.667 -36.5 -89 -36.5c-90.667 0 -136 42 -136 126c0 70.667 43.667 106 131 106c86.667 0 130 -35.333 130 -106zM941 240.999c0 -75.333 -25.666 -135 -76.999 -179c-48.667 -41.333 -111.334 -62 -188.001 -62h-558
l-25 180h572c66 0 99 23.333 99 70c0 24 -9.33301 45.667 -28 65l-405 431l122 122l406 -429c54.667 -58 82 -124 82 -198z" />
    <glyph glyph-name="u0631" unicode="&#x631;" horiz-adv-x="870" arabic-form="isolated" 
d="M764 31c0 -132.667 -41.333 -246 -124 -340c-86 -97.333 -194.667 -146 -326 -146h-240l-29 185h203c86.667 0 161 20.667 223 62c72 48 108 113.667 108 197v576h185v-534z" />
    <glyph glyph-name="u0632" unicode="&#x632;" horiz-adv-x="870" arabic-form="isolated" 
d="M754 1054c0 -35.333 -12 -65.167 -36 -89.5s-53.667 -36.5 -89 -36.5c-92 0 -138 42 -138 126c0 72.667 44 109 132 109c87.333 0 131 -36.333 131 -109zM761 30.999c0 -132 -41.333 -245 -124 -339c-86.667 -98 -195.334 -147 -326.001 -147h-238l-30 185h202
c86.667 0 161.334 20.667 224.001 62c71.333 48 107 113.667 107 197v576h185v-534z" />
    <glyph glyph-name="u0633" unicode="&#x633;" horiz-adv-x="2253" arabic-form="isolated" 
d="M2163 289c0 -84 -19.667 -154.002 -59 -210.002c-44 -64.667 -106 -97 -186 -97c-82 0 -166.333 40.667 -253 122c-58 -81.333 -128.667 -122 -212 -122c-65.333 0 -133 24 -203 72c0 -143.333 -38 -262 -114 -356c-82 -102 -192.667 -153 -332 -153h-274
c-130 0 -237.333 45.667 -322 137c-82 88.667 -123 198.334 -123 329.001v374h176v-382c0 -84 27.667 -151.667 83 -203c53.333 -50 122 -75 206 -75h234c84 0 152.333 25.333 205 76s79 118 79 202v562h180v-267c0 -41.333 15.5 -75.666 46.5 -102.999s67.5 -41 109.5 -41
c82.667 0 124 37.333 124 112v299h177v-265c0 -41.333 15.167 -76 45.5 -104s66.5 -42 108.5 -42c84 0 126 37.333 126 112v299h178v-276z" />
    <glyph glyph-name="u0634" unicode="&#x634;" horiz-adv-x="2253" arabic-form="isolated" 
d="M1721 1054c0 -31.333 -11.5 -57.168 -34.5 -77.501s-50.167 -30.5 -81.5 -30.5c-33.333 0 -62 9.33301 -86 28c-26 20.667 -39 47.334 -39 80.001c0 66.667 38.333 100 115 100c84 0 126 -33.333 126 -100zM1896 799.998c0 -30.667 -11.333 -56.501 -34 -77.501
s-49.667 -31.5 -81 -31.5c-33.333 0 -62 9.66699 -86 29c-26 20.667 -39 47.334 -39 80.001c0 66 38 99 114 99c84 0 126 -33 126 -99zM1550 799.997c0 -30 -11.332 -55.668 -33.999 -77.001s-49.334 -32 -80.001 -32c-33.333 0 -62 9.66699 -86 29
c-26 20.667 -39 47.334 -39 80.001c0 66 38 99 114 99c83.333 0 125 -33 125 -99zM2163 288.996c0 -84 -19.666 -154 -58.999 -210c-44 -64.667 -106 -97 -186 -97c-88 0 -172.333 40.667 -253 122c-64.667 -81.333 -135.334 -122 -212.001 -122c-62 0 -129.667 24 -203 72
c-2 -141.333 -40.667 -259.333 -116 -354c-83.333 -103.333 -193.333 -155 -330 -155h-274c-128 0 -234.667 46 -320 138c-83.333 89.333 -125 198.666 -125 327.999v374h176v-382c0 -84.667 27.333 -152.667 82 -204c52.667 -49.333 121.667 -74 207 -74h234
c82 0 149.833 25.833 203.5 77.5s80.5 118.5 80.5 200.5v562h180v-267c0 -41.333 15.5 -75.666 46.5 -102.999s67.5 -41 109.5 -41c82.667 0 124 37.333 124 112v299h177v-265c0 -42.667 14.833 -77.667 44.5 -105s66.167 -41 109.5 -41c84 0 126 37.333 126 112v299h178
v-276z" />
    <glyph glyph-name="u0635" unicode="&#x635;" horiz-adv-x="2275" arabic-form="isolated" 
d="M2224 318c0 -98 -28.5 -175.501 -85.5 -232.501s-134.5 -85.5 -232.5 -85.5h-488c-102.667 0 -165.334 31.667 -188.001 95c0 -146 -37.333 -271 -112 -375c-84.667 -116.667 -197 -175 -337 -175h-276c-129.333 0 -236.666 49.333 -321.999 148
c-81.333 94 -122 206.667 -122 338v354h180v-396c0 -67.333 30 -127.666 90 -180.999c58 -52 121 -78 189 -78h250c70.667 0 134 25.333 190 76c58.667 52 88 113 88 183v576h185v-267c0 -76 56 -115.333 168 -118c52.667 136 115.667 251 189 345
c100.667 129.333 206 194 316 194c96 0 174.333 -44.667 235 -134c9.33301 -14 20.333 -32.333 33 -55l36 -104c9.33301 -26.667 14 -62.667 14 -108zM2050 345.999c0 36 -10 75.666 -30 118.999c-23.333 50.667 -50 76 -80 76c-59.333 0 -128 -46 -206 -138
c-62 -73.333 -110.333 -147.666 -145 -222.999h346c76.667 0 115 55.333 115 166z" />
    <glyph glyph-name="u0636" unicode="&#x636;" horiz-adv-x="2275" arabic-form="isolated" 
d="M1879 1053c0 -34.667 -12.333 -64.167 -37 -88.5s-54 -36.5 -88 -36.5c-90.667 0 -136 41.667 -136 125c0 71.333 43.667 107 131 107c86.667 0 130 -35.667 130 -107zM2224 318c0 -98.667 -28.3291 -176.331 -84.9961 -232.998s-134.334 -85 -233.001 -85h-488
c-108.667 0 -171.334 31.667 -188.001 95c-1.33301 -144.667 -39.666 -269.334 -114.999 -374.001c-84.667 -117.333 -196 -176 -334 -176h-276c-130.667 0 -238.334 49 -323.001 147c-80.667 93.333 -121 206.333 -121 339v354h180v-396
c0 -68.667 29.667 -129.334 89 -182.001c57.333 -51.333 120.666 -77 189.999 -77h250c66 0 128.833 26.833 188.5 80.5s89.5 113.167 89.5 178.5v576h185v-267c0 -78.667 57 -118 171 -118c150 359.333 318 539 504 539c95.333 0 173.666 -44.333 234.999 -133
c54 -78.667 81 -168 81 -268zM2053 340.003c0 40 -9.33496 80.999 -28.002 122.999c-23.333 52 -51.666 78 -84.999 78c-59.333 0 -128 -46 -206 -138c-63.333 -75.333 -111.666 -149.666 -144.999 -222.999h349c76.667 0 115 53.333 115 160z" />
    <glyph glyph-name="u0637" unicode="&#x637;" horiz-adv-x="1054" arabic-form="isolated" 
d="M994 320c0 -89.333 -25.333 -164.001 -76 -224.001c-54 -64 -125 -96 -213 -96h-624l-36 180h151v974h175v-643c114.667 138.667 218.667 208 312 208c92 0 168.667 -44.667 230 -134c54 -79.333 81 -167.666 81 -264.999zM809 368.999c0 113.333 -36.333 170 -109 170
c-59.333 0 -126.666 -46.333 -201.999 -139c-56 -68 -102.333 -141.333 -139 -220h346c29.333 0 55.666 18.667 78.999 56c16.667 26.667 25 71 25 133z" />
    <glyph glyph-name="u0638" unicode="&#x638;" horiz-adv-x="1054" arabic-form="isolated" 
d="M838 1054c0 -35.333 -12 -65.167 -36 -89.5s-53.333 -36.5 -88 -36.5c-92 0 -138 42 -138 126c0 72.667 44 109 132 109c86.667 0 130 -36.333 130 -109zM703 -0.000976562l-624 -0.000976562l-36 180h151v974h176v-643c110.667 138.667 214 208 310 208
c90 0 166 -42.667 228 -128c55.333 -76.667 83 -161.667 83 -255c0 -95.333 -23.667 -173.666 -71 -234.999c-52 -67.333 -124.333 -101 -217 -101zM806 358.998c0 120 -35.667 180.001 -107 180.001c-59.333 0 -127.333 -46 -204 -138
c-60.667 -72.667 -107 -146.334 -139 -221.001h347c68.667 0 103 59.667 103 179z" />
    <glyph glyph-name="u0639" unicode="&#x639;" horiz-adv-x="1090" arabic-form="isolated" 
d="M1065 -868l-472 -0.00195312c-164 0 -302 50.667 -414 152c-115.333 104.667 -173 238.334 -173 401.001c0 228 126.333 397.667 379 509c-39.333 71.333 -59 143.333 -59 216c0 100 34.667 177.667 104 233c63.333 50.667 146.333 76 249 76c90 0 188.667 -45 296 -135
l-85 -138c-102 69.333 -184 104 -246 104c-67.333 0 -110 -32.333 -128 -97c-0.666992 -2 -2.16699 -7.5 -4.5 -16.5s-4.5 -16.833 -6.5 -23.5v-30c0 -48.667 12.333 -93 37 -133c28.667 -46.667 66 -70 112 -70h357l25 -180h-595c-81.333 0 -145 -33.667 -191 -101
c-40.667 -59.333 -61 -131.666 -61 -216.999c0 -109.333 33.333 -198.833 100 -268.5s154.667 -104.5 264 -104.5h488z" />
    <glyph glyph-name="u063A" unicode="&#x63a;" horiz-adv-x="1090" arabic-form="isolated" 
d="M826 1050c0 -35.333 -12 -65.167 -36 -89.5s-53.667 -36.5 -89 -36.5c-90.667 0 -136 42 -136 126c0 72 43.667 108 131 108c86.667 0 130 -36 130 -108zM1064 -868.001h-470.997c-162.667 0 -300.334 51.333 -413.001 154c-116 105.333 -174 238.333 -174 399
c0 226.667 126.333 396.334 379 509.001c-40.667 75.333 -61 142.666 -61 201.999c0 97.333 30.167 175.833 90.5 235.5s139.166 89.5 236.499 89.5c110 0 217.667 -45.667 323 -137l-86 -138c-98 69.333 -179.333 104 -244 104c-94 0 -141 -54 -141 -162
c0 -54 11 -100 33 -138c27.333 -46.667 65.666 -70 114.999 -70h358l25 -180h-595c-80.667 0 -144 -34 -190 -102c-40.667 -60 -61 -132 -61 -216c0 -110.667 32.667 -200.5 98 -269.5s153.333 -103.5 264 -103.5h489z" />
    <glyph glyph-name="u0641" unicode="&#x641;" horiz-adv-x="1606" arabic-form="isolated" 
d="M1334 1076c0 -34 -12.5 -63 -37.5 -87s-54.5 -36 -88.5 -36c-90 0 -135 41 -135 123c0 72.667 43.333 109 130 109c87.333 0 131 -36.333 131 -109zM1536 315c0 -86 -24.332 -159.002 -72.999 -219.002c-52.667 -64 -121 -96 -205 -96h-938
c-77.333 0 -140.333 30 -189 90c-45.333 56 -68 123.667 -68 203v272h181v-247c0 -51.333 9.5 -87.166 28.5 -107.499s53.5 -30.5 103.5 -30.5h860c54.667 0 89 10.333 103 31c6.66699 10 14.667 44.667 24 104c-169.333 0 -275.333 7.66699 -318 23
c-97.333 34 -146 116.667 -146 248c0 88.667 30 158.667 90 210c56.667 48 130 72 220 72c95.333 0 173.333 -33.333 234 -100c57.333 -63.333 87.166 -143.166 89.499 -239.499s3.5 -167.5 3.5 -213.5zM1359 482.998c0 57.333 -14.667 105.001 -44 143.001
c-32 42.667 -75.667 64 -131 64c-87.333 0 -131 -39 -131 -117c0 -58.667 46 -88.334 138 -89.001c28 0 84 -0.333008 168 -1z" />
    <glyph glyph-name="u0642" unicode="&#x642;" horiz-adv-x="1339" arabic-form="isolated" 
d="M1196 741c0 -31.333 -11 -56.667 -33 -76s-48.667 -29 -80 -29c-85.333 0 -128 35 -128 105c0 66.667 38.667 100 116 100c83.333 0 125 -33.333 125 -100zM849 740.999c0 -31.333 -11.168 -56.667 -33.501 -76s-49.166 -29 -80.499 -29c-84 0 -126 35 -126 105
c0 66.667 38.667 100 116 100c82.667 0 124 -33.333 124 -100zM1253 34.998c0 -26 -3.00098 -73.667 -9.00098 -143c-9.33301 -109.333 -57.666 -199.333 -144.999 -270c-82.667 -67.333 -180.334 -101 -293.001 -101h-272c-133.333 0 -240.666 46 -321.999 138
c-77.333 88 -116 199.667 -116 335v359h170v-366c0 -83.333 25.833 -153.666 77.5 -210.999s118.834 -86 201.501 -86h250c84.667 0 154 30.667 208 92c50.667 58 76.667 130.333 78 217c-169.333 0 -276 7.33301 -320 22c-97.333 33.333 -146 115.666 -146 246.999
c0 86 29.333 154.667 88 206c56 48 128 72 216 72c101.333 0 182.666 -34 243.999 -102c60 -65.333 90 -149 90 -251v-158zM1079 164.998c0 56 -15.333 103.333 -46 142c-32.667 42 -76.667 63 -132 63c-84 0 -126 -34 -126 -102c0 -72 56.333 -108 169 -108
c60.667 0 105.667 1.66699 135 5z" />
    <glyph glyph-name="u0643" unicode="&#x643;" horiz-adv-x="1606" arabic-form="isolated" 
d="M1533 244c0 -74.667 -28.332 -134.664 -84.999 -179.997c-52.667 -42.667 -117 -64 -193 -64h-926c-76.667 0 -139.334 30.333 -188.001 91c-45.333 56.667 -68 124 -68 202v272h180v-247c0 -50.667 9.5 -86.334 28.5 -107.001s53.5 -31 103.5 -31h863
c63.333 0 95 28 95 84c0 25.333 -9.66699 47.666 -29 66.999l-471 487l-25 205l656 236l24 -180l-473 -183l421 -446c58 -60.667 87 -129.334 87 -206.001z" />
    <glyph glyph-name="u0644" unicode="&#x644;" horiz-adv-x="1361" arabic-form="isolated" 
d="M1264 23c0 -136 -40.667 -248.999 -122 -338.999c-84.667 -92.667 -194 -139 -328 -139h-275c-120 0 -224.333 47.667 -313 143c-87.333 93.333 -131 200.333 -131 321v376h180v-396c0 -74.667 31.333 -137.334 94 -188.001c58 -47.333 125 -71 201 -71h233
c72 0 136.333 24.667 193 74c58.667 52 88 113.667 88 185v1165h180v-1131z" />
    <glyph glyph-name="u0645" unicode="&#x645;" horiz-adv-x="1149" arabic-form="isolated" 
d="M1086 295c0 -90.667 -30.5 -163.332 -91.5 -217.999s-137.167 -82 -228.5 -82c-92.667 0 -168 31.667 -226 95c-56.667 61.333 -85 139 -85 233v220c-20.667 1.33301 -33 2 -37 2c-46.667 0 -85.834 -18.333 -117.501 -55s-47.5 -78.334 -47.5 -125.001v-820h-177v798
c0 115.333 30.333 206 91 272c62.667 69.333 151.334 104 266.001 104h365c120 0 201.667 -43.667 245 -131c28.667 -59.333 43 -157 43 -293zM910 334.002c0 96.667 -9.66699 154.001 -29 172.001c-22 20.667 -106 33 -252 37v-250c0 -34.667 16.667 -63.334 50 -86.001
c30 -20.667 63 -31 99 -31c88 0 132 52.667 132 158z" />
    <glyph glyph-name="u0646" unicode="&#x646;" horiz-adv-x="1339" arabic-form="isolated" 
d="M730 606c0 -34 -12.167 -63 -36.5 -87s-53.833 -36 -88.5 -36c-89.333 0 -134 41 -134 123c0 72 42.667 108 128 108c87.333 0 131 -36 131 -108zM1239 29c0 -140.667 -40 -255.667 -120 -345c-83.333 -92.667 -194.333 -139 -333 -139h-277c-123.333 0 -227 47 -311 141
c-81.333 90.667 -122 198.334 -122 323.001v376h177v-396c0 -76 29.667 -139.667 89 -191c56.667 -48.667 123.667 -73 201 -73h232c78 0 144.833 24.667 200.5 74s83.5 112.666 83.5 189.999v576h180v-536z" />
    <glyph glyph-name="u0647" unicode="&#x647;" horiz-adv-x="809" arabic-form="isolated" 
d="M758 305c0 -93.333 -35.666 -171.334 -106.999 -234.001c-68.667 -60.667 -150.334 -91 -245.001 -91c-98 0 -178.5 33.5 -241.5 100.5s-94.5 149.833 -94.5 248.5c0 102.667 68.333 222.334 205 359.001l-52 58l122 122l329 -340c56 -58 84 -132.333 84 -223z
M579.001 315.999c0 36.667 -9.66699 65 -29 85l-145 153c-107.333 -102 -161 -183 -161 -243c0 -46 17.333 -83.833 52 -113.5s75.667 -44.5 123 -44.5s85.833 15.333 115.5 46s44.5 69.667 44.5 117z" />
    <glyph glyph-name="u0648" unicode="&#x648;" horiz-adv-x="893" arabic-form="isolated" 
d="M781 -23c0 -120 -45.167 -222.002 -135.5 -306.002s-195.833 -126 -316.5 -126h-233l-23 180h227c85.333 0 156 24.667 212 74s85.667 116.333 89 201c-150 0 -259 20 -327 60c-90.667 53.333 -136 149.333 -136 288c0 150.667 35.667 256.334 107 317.001
c44 37.333 117.333 56 220 56c136.667 0 228 -57.333 274 -172c28 -71.333 42 -186.666 42 -345.999v-226zM601 179.998v185c0 117.333 -47 176 -141 176c-57.333 0 -96 -19.333 -116 -58c-14 -28 -21 -74.333 -21 -139c0 -76 30.333 -124.667 91 -146
c32.667 -12 95 -18 187 -18z" />
    <glyph glyph-name="u0649" unicode="&#x649;" horiz-adv-x="1289" arabic-form="isolated" 
d="M1225 9c0 -176.667 -63.667 -306.666 -191 -389.999c-75.333 -49.333 -158.666 -74 -249.999 -74h-279c-123.333 0 -226 47 -308 141c-78.667 90 -118 197.667 -118 323v372h169v-392c0 -80 29.333 -145.333 88 -196c56 -48 124.333 -72 205 -72h232
c70.667 0 134 23 190 69c60 48 90 106.667 90 176c0 59.333 -41 98.333 -123 117c-22 4.66699 -37 7 -45 7h-250v309c0 92.667 29.667 169.167 89 229.5s135.666 90.5 228.999 90.5h216l7 -169h-216c-64.667 0 -109.334 -28.667 -134.001 -86
c-11.333 -28 -18.666 -96.333 -21.999 -205c142 0 236.667 -8.66699 284 -26c91.333 -34.667 137 -109.334 137 -224.001z" />
    <glyph glyph-name="u064A" unicode="&#x64a;" horiz-adv-x="1289" arabic-form="isolated" 
d="M1225 9c0 -176.667 -63.667 -306.666 -191 -389.999c-75.333 -49.333 -158.666 -74 -249.999 -74h-279c-123.333 0 -226 47 -308 141c-78.667 90 -118 197.667 -118 323v372h169v-392c0 -80 29.333 -145.333 88 -196c56 -48 124.333 -72 205 -72h232
c70.667 0 134 23 190 69c60 48 90 106.667 90 176c0 59.333 -41 98.333 -123 117c-22 4.66699 -37 7 -45 7h-250v309c0 92.667 29.667 169.167 89 229.5s135.666 90.5 228.999 90.5h216l7 -169h-216c-64.667 0 -109.334 -28.667 -134.001 -86
c-11.333 -28 -18.666 -96.333 -21.999 -205c142 0 236.667 -8.66699 284 -26c91.333 -34.667 137 -109.334 137 -224.001z" />
    <glyph glyph-name="u067E" unicode="&#x67e;" horiz-adv-x="1606" arabic-form="isolated" 
d="M1541 293c0 -76 -23.999 -143 -71.999 -201c-50.667 -61.333 -113.334 -92 -188.001 -92h-950c-76.667 0 -139.667 30 -189 90c-46 56 -69 123.667 -69 203v272h180v-247c0 -50.667 9.5 -86.334 28.5 -107.001s53.5 -31 103.5 -31h840c50 0 84.833 10.333 104.5 31
s29.5 56.334 29.5 107.001v247h182v-272zM1131 -343c0 -64 -38.668 -96 -116.001 -96c-83.333 0 -125 32 -125 96c0 30.667 11.333 56.5 34 77.5s49.334 31.5 80.001 31.5c34.667 0 64 -9 88 -27c26 -20.667 39 -48 39 -82zM786 -343c0 -64 -38.668 -96 -116.001 -96
c-83.333 0 -125 32 -125 96c0 30.667 11.333 56.5 34 77.5s49.334 31.5 80.001 31.5c34.667 0 64 -9 88 -27c26 -20.667 39 -48 39 -82zM950.999 -598c0 -65.333 -38.333 -98 -115 -98c-84 0 -126 32.667 -126 98c0 72.667 38 109 114 109c34.667 0 64 -9 88 -27
c26 -20.667 39 -48 39 -82z" />
    <glyph glyph-name="u0686" unicode="&#x686;" horiz-adv-x="1104" arabic-form="isolated" 
d="M1019 -223c0 -63.333 -41.001 -95 -123.001 -95c-78.667 0 -118 31.667 -118 95c0 32 10.667 58.333 32 79s48 31 80 31c34.667 0 64.334 -9.33301 89.001 -28c26.667 -20.667 40 -48 40 -82zM1124 -868h-493.002c-168.667 0 -308.667 51.667 -420 155
c-114.667 105.333 -172 241.666 -172 408.999c0 198 87.333 345.333 262 442l550 303c-26.667 50 -67 79.667 -121 89c-49.333 8 -207.666 12.333 -474.999 13l-22 176h433c250.667 0 376.334 -123.667 377.001 -371l-593 -332c-160 -89.333 -240 -200.666 -240 -333.999
c0 -97.333 37.833 -183.833 113.5 -259.5s162.5 -113.5 260.5 -113.5h525zM670.997 -223c0 -63.333 -40.333 -95 -121 -95c-80 0 -120 31.667 -120 95c0 32 10.833 58.333 32.5 79s48.5 31 80.5 31c34 0 63.333 -9.33301 88 -28c26.667 -20.667 40 -48 40 -82zM833.997 -478
c0 -64.667 -38.334 -97 -115.001 -97c-84 0 -126 32.333 -126 97c0 73.333 37.333 110 112 110c34.667 0 64.334 -9.33301 89.001 -28c26.667 -20.667 40 -48 40 -82z" />
    <glyph glyph-name="u0698" unicode="&#x698;" horiz-adv-x="922" arabic-form="isolated" 
d="M665 944c-34.667 0 -64.333 9.33301 -89 28c-26.667 20.667 -40 48 -40 82c0 64.667 41 97 123 97c80.667 0 121 -30.667 121 -92c0 -32.667 -11 -60 -33 -82s-49.333 -33 -82 -33zM954.001 800c0 -32 -11.166 -58.499 -33.499 -79.499s-49.5 -31.5 -81.5 -31.5
c-34.667 0 -64.334 9.66699 -89.001 29c-26.667 21.333 -40 48.666 -40 81.999c0 64 38.667 96 116 96c85.333 0 128 -32 128 -96zM604.002 800.001c0 -31.333 -11 -57.668 -33 -79.001s-48.667 -32 -80 -32c-33.333 0 -63 10.333 -89 31s-39 47.334 -39 80.001
c0 64 38.667 96 116 96c83.333 0 125 -32 125 -96zM766.002 30.999c0 -132.667 -41.668 -246 -125.001 -340c-86 -97.333 -194.667 -146 -326 -146h-239l-28 185h202c86.667 0 161.334 20.667 224.001 62c71.333 48 107 113.667 107 197v576h185v-534z" />
    <glyph glyph-name="u06AF" unicode="&#x6af;" horiz-adv-x="1606" arabic-form="isolated" 
d="M1446 1361l-628 -227l-9 69l632 227zM1555 241c0 -80 -28 -141.333 -84 -184c-50 -38 -116 -57 -198 -57h-925c-76 -0 -138.667 30.333 -188 91c-46.667 56.667 -70 124 -70 202v272h180v-247c0 -52 10 -88 30 -108s56 -30 108 -30h876c22.667 0 43.667 8 63 24
s29 35 29 57c0 16.667 -5.66699 31 -17 43l-499 514l-34 202l665 239l25 -180l-466 -178l416 -460c59.333 -65.333 89 -132 89 -200z" />
    <glyph glyph-name="uFB57" unicode="&#x67e;" horiz-adv-x="1713" arabic-form="final" 
d="M1746 0c-142.667 0 -238 23.333 -286 70c-61.333 -46.667 -119.333 -70 -174 -70h-948c-74.667 0 -137 30.667 -187 92c-46.667 57.333 -70 124.333 -70 201v272h180v-247c0 -51.333 10 -87.166 30 -107.499s55 -30.5 105 -30.5h837c50 0 84.5 10.167 103.5 30.5
s28.5 56.166 28.5 107.499v247h183v-247c0 -92 66 -138 198 -138v-180zM1138 -314c0 -62.667 -40.666 -93.999 -121.999 -93.999c-78 0 -117 31.333 -117 94c0 31.333 10.667 57.666 32 78.999s47.666 32 78.999 32c85.333 0 128 -37 128 -111zM793.001 -313.999
c0 -62.667 -40.666 -93.999 -121.999 -93.999c-78 0 -117 31.333 -117 94c0 31.333 10.667 57.666 32 78.999s47.666 32 78.999 32c85.333 0 128 -37 128 -111zM958.002 -567.998c0 -64.667 -38 -97 -114 -97c-83.333 0 -125 32.333 -125 97c0 32 10.667 58.333 32 79
s48 31 80 31c34.667 0 64 -9.33301 88 -28c26 -20.667 39 -48 39 -82z" />
    <glyph glyph-name="uFB58" unicode="&#x67e;" horiz-adv-x="703" arabic-form="initial" 
d="M621 293c0 -78 -22.667 -145.332 -68 -201.999c-49.333 -60.667 -112 -91 -188 -91h-385v180h329c50 0 84.5 10.167 103.5 30.5s28.5 56.166 28.5 107.499v247h180v-272zM599 -313.999c0 -64 -38.667 -96 -116 -96c-83.333 0 -125 32 -125 96c0 32 10.833 58.5 32.5 79.5
s48.5 31.5 80.5 31.5c85.333 0 128 -37 128 -111zM254 -313.999c0 -64 -38.667 -96 -116 -96c-83.333 0 -125 32 -125 96c0 32 10.833 58.5 32.5 79.5s48.5 31.5 80.5 31.5c85.333 0 128 -37 128 -111zM419 -567.999c0 -65.333 -38.334 -98 -115.001 -98
c-84 0 -126 32.667 -126 98c0 73.333 37.333 110 112 110c34.667 0 64.334 -9.33301 89.001 -28c26.667 -20.667 40 -48 40 -82z" />
    <glyph glyph-name="uFB59" unicode="&#x67e;" horiz-adv-x="739" arabic-form="medial" 
d="M778 0c-74 -0.666992 -129 2.33398 -165 9.00098c-30.667 12.667 -61.667 33 -93 61c-57.333 -46.667 -114.333 -70 -171 -70h-388v180h334c50 0 84.667 10.167 104 30.5s29 56.166 29 107.499v247h181v-247c0 -59.333 13.667 -98.333 41 -117c21.333 -14 64 -21 128 -21
v-180zM569 -313.999c0 -64 -38.667 -96 -116 -96c-83.333 0 -125 32 -125 96c0 32 10.833 58.5 32.5 79.5s48.5 31.5 80.5 31.5c85.333 0 128 -37 128 -111zM224 -313.999c0 -64 -38.667 -96 -116 -96c-84 0 -126 32 -126 96c0 32 11 58.5 33 79.5s49 31.5 81 31.5
c85.333 0 128 -37 128 -111zM389 -567.999c0 -65.333 -38.334 -98 -115.001 -98c-84 0 -126 32.667 -126 98c0 73.333 37.333 110 112 110c34.667 0 64.334 -9.33301 89.001 -28c26.667 -20.667 40 -48 40 -82z" />
    <glyph glyph-name="uFB7B" unicode="&#x686;" horiz-adv-x="1104" arabic-form="final" 
d="M1011 -223c0 -63.333 -40.333 -95 -121 -95c-80 0 -120 31.667 -120 95c0 32 11 58.333 33 79s49 31 81 31c34 0 63.333 -9.33301 88 -28c26 -20.667 39 -48 39 -82zM1160 0c-108.667 3.33301 -182.001 15.335 -220.001 36.002c-51.333 28.667 -81.666 58.667 -90.999 90
c-6.66699 22 -14.667 50.333 -24 85l-352 -195c-160 -88.667 -240 -200 -240 -334c0 -97.333 37.833 -183.833 113.5 -259.5s162.167 -113.5 259.5 -113.5h525l15 -177h-492c-168.667 0 -309 51.667 -421 155c-114.667 105.333 -172 241.666 -172 408.999
c0 197.333 88 344.666 264 441.999l551 303c-50.667 78 -183 114.333 -397 109c-211.333 -4.66699 -278.333 -7 -201 -7l-23 176h434c250.667 0 376 -123.667 376 -371l-164 -93c15.333 -36.667 53.333 -60 114 -70c20 -3.33301 68.333 -5 145 -5v-180zM664.999 -222.998
c0 -63.333 -40.668 -95 -122.001 -95c-79.333 0 -119 31.667 -119 95c0 32 10.667 58.333 32 79s48 31 80 31c34.667 0 64.334 -9.33301 89.001 -28c26.667 -20.667 40 -48 40 -82zM825.998 -477.998c0 -64.667 -37.667 -97 -113 -97c-84.667 0 -127 32.333 -127 97
c0 73.333 37.333 110 112 110c34 0 63.333 -9.33301 88 -28c26.667 -20.667 40 -48 40 -82z" />
    <glyph glyph-name="uFB7C" unicode="&#x686;" horiz-adv-x="1031" arabic-form="initial" 
d="M996 348l-411.998 -235c-96.667 -55.333 -198 -89.666 -304 -102.999c-52.667 -6.66699 -160.334 -10 -323.001 -10v180c232.667 0 397 22.667 493 68c7.33301 3.33301 50.666 26 129.999 68l220 123c-23.333 49.333 -62 80.666 -116 93.999
c-23.333 5.33301 -76.333 8 -159 8l-315 2l-25 176h444c244.667 0 367 -123.667 367 -371zM683.002 -314c0 -62.667 -40.667 -94 -122 -94c-78.667 0 -118 31.333 -118 94c0 32 10.667 58.5 32 79.5s48 31.5 80 31.5c85.333 0 128 -37 128 -111zM339.002 -314
c0 -62.667 -41 -93.999 -123 -93.999c-78.667 0 -118 31.333 -118 94c0 32 10.667 58.5 32 79.5s48 31.5 80 31.5c35.333 0 65 -9.33301 89 -28c26.667 -20.667 40 -48.334 40 -83.001zM503.002 -567.999c0 -64.667 -38 -97 -114 -97c-85.333 0 -128 32.333 -128 97
c0 73.333 37.667 110 113 110c34 0 63.333 -9.33301 88 -28c27.333 -20.667 41 -48 41 -82z" />
    <glyph glyph-name="uFB7D" unicode="&#x686;" horiz-adv-x="1031" arabic-form="medial" 
d="M1059 0c-169.333 4 -263.001 43.332 -281.001 117.999c-8 30 -15.667 61 -23 93c-173.333 -102.667 -298.666 -163.667 -375.999 -183c-71.333 -18.667 -212 -28 -422 -28v180c232 0 396.333 22.667 493 68c20 8.66699 136.667 72.334 350 191.001
c-23.333 48.667 -62 80 -116 94c-22 5.33301 -75 8 -159 8l-315 2l-25 176h444c244.667 0 367 -123.667 367 -371l-167 -92c0 -50.667 76.667 -76 230 -76v-180zM704.999 -314.001c0 -64 -38.668 -96 -116.001 -96c-83.333 0 -125 32 -125 96c0 30 11.333 55.667 34 77
s49.334 32 80.001 32c34.667 0 64.5 -9.66699 89.5 -29s37.5 -46 37.5 -80zM359.998 -314.001c0 -64 -38.668 -96 -116.001 -96c-82.667 0 -124 32 -124 96c0 30 11.333 55.667 34 77s49.334 32 80.001 32c84 0 126 -36.333 126 -109zM524.997 -568.001
c0 -65.333 -38.333 -98 -115 -98c-84 0 -126 32.667 -126 98c0 72 38.333 108 115 108c84 0 126 -36 126 -108z" />
    <glyph glyph-name="uFB8B" unicode="&#x698;" horiz-adv-x="915" arabic-form="final" 
d="M744 1059c0 -32 -11.168 -58.333 -33.501 -79s-49.5 -31 -81.5 -31c-33.333 0 -62.666 10.333 -87.999 31s-38 47 -38 79c0 64.667 38.333 97 115 97c84 0 126 -32.333 126 -97zM919.999 804c0 -32 -11.166 -58.333 -33.499 -79s-49.5 -31 -81.5 -31
c-32.667 0 -61.334 10 -86.001 30c-26.667 21.333 -40 48 -40 80c0 64.667 38 97 114 97c84.667 0 127 -32.333 127 -97zM573 804c0 -31.333 -11.332 -57.5 -33.999 -78.5s-49.334 -31.5 -80.001 -31.5c-34 0 -63.333 10.167 -88 30.5s-37 46.833 -37 79.5
c0 64.667 38.333 97 115 97c82.667 0 124 -32.333 124 -97zM946.001 0c-94.667 1.33301 -159.001 29.667 -193.001 85c0 -150.667 -37.333 -275.667 -112 -375c-82 -110 -196.333 -165 -343 -165h-233l-29 180h248c74.667 0 140.334 25 197.001 75c59.333 52 89 115 89 189
v576h180v-259c0 -84 65.333 -126 196 -126v-180z" />
    <glyph glyph-name="uFEDA" unicode="&#x6a9;" horiz-adv-x="1760" arabic-form="final" 
d="M1806 0c-134.667 0 -233.667 43.001 -297 129.001c-32 -86 -109 -129 -231 -129h-944c-76 0 -138.667 30.333 -188 91c-46.667 56.667 -70 124 -70 202v272h180v-247c0 -50.667 9.83301 -86.334 29.5 -107.001s54.5 -31 104.5 -31h879c60 0 90 21.667 90 65
c0 23.333 -14.667 50.333 -44 81l-467 492l-34 202l664 239l25 -180l-469 -175l500 -555l129 -130c22 -22.667 69.667 -35.667 143 -39v-180z" />
    <glyph glyph-name="uFEDB" unicode="&#x6a9;" horiz-adv-x="843" arabic-form="initial" 
d="M803 245c0 -163.333 -91.667 -245 -275 -245h-562v180h562c47.333 0 71 28 71 84c0 26 -7.66699 46.667 -23 62l-467 492l-30 201l660 240l27 -180l-466 -175l369 -413c26 -29.333 59.333 -76.666 100 -141.999c22.667 -36.667 34 -71.334 34 -104.001z" />
    <glyph glyph-name="uFEDC" unicode="&#x6a9;" horiz-adv-x="1009" arabic-form="medial" 
d="M1064 0c-153.333 0 -261.667 43.668 -325 131.001c-35.333 -87.333 -118 -131 -248 -131h-534v180h537c47.333 0 71 31 71 93c0 21.333 -6.66699 39 -20 53l-469 492l-33 202l662 239l25 -180l-469 -175l497 -550c56 -62.667 100 -104.334 132 -125.001
c47.333 -30.667 105.333 -47 174 -49v-180z" />
    <glyph glyph-name="uFB93" unicode="&#x6af;" horiz-adv-x="1760" arabic-form="final" 
d="M1419 1361l-626 -227l-9 69l631 227zM1794 0c-135.333 0 -234.668 42.999 -298.001 128.999c-31.333 -86 -108.666 -129 -231.999 -129h-944c-77.333 0 -140.333 30 -189 90c-45.333 56 -68 123.667 -68 203v272h181v-247c0 -51.333 9.5 -87.166 28.5 -107.499
s53.5 -30.5 103.5 -30.5h879c60 0 90 22.667 90 68c0 22.667 -14 48.667 -42 78l-472 492l-31 202l664 239l25 -180l-469 -175l499 -555c0 -0.666992 42.333 -44 127 -130c22 -22.667 71.333 -35.667 148 -39v-180z" />
    <glyph glyph-name="uFB94" unicode="&#x6af;" horiz-adv-x="856" arabic-form="initial" 
d="M660 1361l-629 -227l-8 69l632 227zM769 239c0 -76.667 -29.666 -136.667 -88.999 -180c-52.667 -39.333 -118.334 -59 -197.001 -59h-526v180h526c68.667 0 103 22.667 103 68c0 24.667 -11 48.667 -33 72l-479 498l-34 202l665 239l25 -180l-474 -180l463 -511
c33.333 -37.333 50 -87 50 -149z" />
    <glyph glyph-name="uFB95" unicode="&#x6af;" horiz-adv-x="1031" arabic-form="medial" 
d="M680 1361l-629 -227l-8 69l633 227zM1054 0c-148 0 -252.999 48 -314.999 144c-40.667 -96 -116.667 -144 -228 -144h-536v180h539c61.333 0 92 22.667 92 68c0 22.667 -14 48.667 -42 78l-471 492l-30 202l661 239l29 -180l-480 -180l502 -550
c35.333 -39.333 88 -89.333 158 -150c29.333 -14.667 69.666 -21 120.999 -19v-180z" />
    <glyph glyph-name="uFE94" unicode="&#x6c0;" horiz-adv-x="1031" arabic-form="final" 
d="M450 1143l-304.001 -154l-25 50l104 56c-61.333 32.667 -92 76 -92 130c0 42 13.833 78.167 41.5 108.5s62.5 45.5 104.5 45.5c26.667 0 55.334 -6.66699 86.001 -20l-22 -48c-20.667 11.333 -38.667 17 -54 17c-28.667 0 -52.5 -10 -71.5 -30s-28.5 -44.333 -28.5 -73
c0 -53.333 26.333 -80 79 -80c38.667 0 90.667 17 156 51zM1068 0c-78.667 0 -135.999 10.332 -171.999 30.999c-18 10.667 -80.667 65.667 -188 165c-68 -144 -177.667 -216 -329 -216c-99.333 0 -181.333 32.333 -246 97s-97 146.667 -97 246
c0 104 69.667 225.667 209 365l-51 58l121 122l539 -573c47.333 -50 77.666 -79 90.999 -87c25.333 -15.333 66.333 -24.666 123 -27.999v-180zM553 310.999c0 44 -11.332 77 -33.999 99l-145 144c-56 -52.667 -91 -88 -105 -106c-35.333 -45.333 -53 -91 -53 -137
c0 -46.667 15.667 -84.5 47 -113.5s70.666 -43.5 117.999 -43.5c46 0 86.167 14.833 120.5 44.5s51.5 67.167 51.5 112.5z" />
    <glyph glyph-name="uFEF2" unicode="&#x6cc;" horiz-adv-x="1289" arabic-form="final" 
d="M1318 0l-167 -0.000976562l9 -88c0 -104.667 -39.667 -192.667 -119 -264c-77.333 -68.667 -169 -103 -275 -103h-277c-142 0 -253.667 52 -335 156c-74 95.333 -111 216 -111 362v322h180v-391c0 -86 30 -153.333 90 -202c55.333 -44.667 127 -67 215 -67h231
c64 0 116.667 17 158 51c44 36.667 66 86.667 66 150c0 38.667 -55 62.334 -165 71.001c-20 2 -89.667 3 -209 3l-16 180h725v-180z" />
    <glyph glyph-name="uFEF3" unicode="&#x6cc;" horiz-adv-x="680" arabic-form="initial" 
d="M606 293c0 -78 -23 -145.332 -69 -201.999c-49.333 -60.667 -112 -91 -188 -91h-385v180h329c50 0 84.667 10.167 104 30.5s29 56.166 29 107.499v247h180v-272zM575 -344.999c0 -30.667 -11.168 -56 -33.501 -76s-49.166 -30 -80.499 -30c-33.333 0 -62 9 -86 27
c-26 20 -39 46.333 -39 79c0 66.667 38 100 114 100c83.333 0 125 -33.333 125 -100zM229.999 -344.999c0 -30.667 -11.168 -56 -33.501 -76s-49.166 -30 -80.499 -30c-33.333 0 -62 9 -86 27c-26 20 -39 46.333 -39 79c0 66.667 38 100 114 100
c83.333 0 125 -33.333 125 -100z" />
    <glyph glyph-name="uFEF4" unicode="&#x6cc;" horiz-adv-x="739" arabic-form="medial" 
d="M775 0c-73.333 -0.666992 -128.332 2.33496 -164.999 9.00195c-28.667 11.333 -59 31.666 -91 60.999c-57.333 -46.667 -114.333 -70 -171 -70h-388v180h333c50 0 84.667 10.167 104 30.5s29 56.166 29 107.499v247h180v-247c0 -59.333 14 -98.333 42 -117
c21.333 -14 63.666 -21 126.999 -21v-180zM615.001 -342.998c0 -30.667 -11 -56 -33 -76s-48.333 -30 -79 -30c-34 0 -63 9.33301 -87 28c-26.667 20 -40 46 -40 78c0 66 38.333 99 115 99c82.667 0 124 -33 124 -99zM270.001 -342.998c0 -30.667 -11 -56 -33 -76
s-48.333 -30 -79 -30c-34 0 -63 9.33301 -87 28c-26.667 20 -40 46 -40 78c0 66 38.333 99 115 99c82.667 0 124 -33 124 -99z" />
    <glyph glyph-name="Hcircumflex" unicode="&#x622;" horiz-adv-x="575" arabic-form="final" 
d="M725 1258l-449.999 0.000976562c-6.66699 -1.33301 -42 -4.66602 -106 -9.99902c-27.333 -2.66699 -47.333 -9.33398 -60 -20.001c-16.667 -14.667 -37 -47.667 -61 -99l-166 62c43.333 94 80.666 153 111.999 177c49.333 37.333 124.333 57.666 225 60.999
c75.333 2.66699 197.333 4 366 4h140v-175zM604.001 0.000976562c-121.333 0 -209.999 15.333 -265.999 46c-78 42.667 -117 119 -117 229v851h180v-772c0 -82 13.333 -132.333 40 -151c21.333 -15.333 75.666 -23 162.999 -23v-180z" />
    <glyph glyph-name="uFE84" unicode="&#x623;" horiz-adv-x="469" arabic-form="final" 
d="M509 0c-152 0 -259 29.333 -321 88c-41.333 38 -62 100.333 -62 187v851h180v-772c0 -83.333 14 -134.333 42 -153c17.333 -11.333 71 -18.333 161 -21v-180zM345 1382l-246 -124.001l-20 40l84 48c-50 25.333 -75 62 -75 110c0 32.667 11.5 60.834 34.5 84.501
s50.833 35.5 83.5 35.5c16 0 39 -6.33301 69 -19l-17 -36c-14.667 8.66699 -32.667 13 -54 13c-46.667 0 -70 -27.333 -70 -82c0 -45.333 22.333 -68 67 -68c36 0 76.667 14 122 42z" />
    <glyph glyph-name="uFE86" unicode="&#x624;" horiz-adv-x="893" arabic-form="final" 
d="M484 890l-303.999 -154.001l-25 50l104 57c-60 32.667 -90 76.334 -90 131.001c0 44 13.167 80.833 39.5 110.5s61.5 44.5 105.5 44.5c15.333 0 43.666 -7.66699 84.999 -23l-23 -47c-19.333 10.667 -36.333 16 -51 16c-28.667 0 -52.5 -9.66699 -71.5 -29
s-28.5 -43.333 -28.5 -72c0 -54 26.333 -81 79 -81c39.333 0 91.333 17 156 51zM919.001 -0.000976562l-118.999 0.00292969c0 -134 -44.167 -243.333 -132.5 -328s-199.5 -127 -333.5 -127h-233l-22 180h227c83.333 0 153.666 24.667 210.999 74
c61.333 52.667 92 119.667 92 201c-147.333 0 -255.666 19.333 -324.999 58c-93.333 51.333 -140 144.666 -140 279.999c0 123.333 20.667 214.666 62 273.999c50 71.333 134.333 107 253 107c147.333 0 245.666 -58 294.999 -174c30.667 -72.667 46 -194.334 46 -365.001
h119v-180zM615.002 180.002v170.998c0 74.667 -19.667 126.334 -59 155.001c-31.333 23.333 -61.333 35 -90 35c-91.333 0 -137 -61.667 -137 -185c0 -81.333 30 -133.666 90 -156.999c32 -12.667 97.333 -19 196 -19z" />
    <glyph glyph-name="uFE88" unicode="&#x625;" horiz-adv-x="469" arabic-form="final" 
d="M509 0c-152 0 -259 29.333 -321 88c-41.333 38 -62 100.333 -62 187v851h180v-772c0 -83.333 14 -134.333 42 -153c17.333 -11.333 71 -18.333 161 -21v-180zM434 -367l-247 -124.001l-20 40l84 48c-50 25.333 -75 62 -75 110c0 32.667 11.667 60.834 35 84.501
s51.333 35.5 84 35.5c16 0 39 -6.33301 69 -19l-18 -36c-14 8.66699 -32 13 -54 13c-46.667 0 -70 -27.333 -70 -82c0 -45.333 22.667 -68 68 -68c36 0 76.333 14 121 42z" />
    <glyph glyph-name="uFE8A" unicode="&#x626;" horiz-adv-x="1289" arabic-form="final" 
d="M450 781l-304 -152l-25 49l104 57c-61.333 32.667 -92 76 -92 130c0 42 13.833 78.167 41.5 108.5s62.5 45.5 104.5 45.5c24 0 52.667 -7 86 -21l-22 -47c-18.667 10 -36.667 15 -54 15c-28.667 0 -52.5 -9.66699 -71.5 -29s-28.5 -43.333 -28.5 -72
c0 -54 26.333 -81 79 -81c37.333 0 89.333 17.333 156 52zM1318 0h-166.999c6 -20.667 9 -50 9 -88c0 -106 -39.333 -194.333 -118 -265c-76 -68 -168 -102 -276 -102h-277c-144.667 0 -257 51.667 -337 155c-72.667 93.333 -109 214.333 -109 363v322h180v-391
c0 -86 30 -153.333 90 -202c55.333 -44.667 127 -67 215 -67h231c63.333 0 115.666 17.333 156.999 52c44.667 37.333 67 87 67 149c0 30.667 -17.667 50 -53 58c-38.667 8 -145.667 13.333 -321 16l-16 180h725v-180z" />
    <glyph glyph-name="uFE8B" unicode="&#x626;" horiz-adv-x="609" arabic-form="initial" 
d="M446 773l-303 -153.001l-25 49l103 56c-61.333 34.667 -92 79.334 -92 134.001c0 42 13.833 77.833 41.5 107.5s62.5 44.5 104.5 44.5c16 0 44.333 -7.33301 85 -22l-22 -48c-17.333 12.667 -35.333 19 -54 19c-66 0 -99 -33.667 -99 -101c0 -54 26.333 -81 79 -81
c38 0 89.667 17 155 51zM520 292.999c0 -77.333 -24 -144.665 -72 -201.998c-50.667 -60.667 -113.667 -91 -189 -91h-295v180c188.667 0 293.667 3.66699 315 11c40 14.667 60 68.667 60 162c0 23.333 -0.5 58.666 -1.5 105.999s-1.5 82.666 -1.5 105.999h184v-272z" />
    <glyph glyph-name="uFE8C" unicode="&#x626;" horiz-adv-x="703" arabic-form="medial" 
d="M441 780l-303.001 -154l-25 50l103 57c-61.333 32 -92 75.333 -92 130c0 42 13.833 78.5 41.5 109.5s62.5 46.5 104.5 46.5c16.667 0 45.334 -7.66699 86.001 -23l-22 -47c-18.667 10 -36.667 15 -54 15c-28.667 0 -52.5 -9.83301 -71.5 -29.5s-28.5 -43.5 -28.5 -71.5
c0 -54.667 26.333 -82 79 -82c37.333 0 89.333 17.667 156 53zM727.999 0l-29.001 0.00195312c-62 0 -102.333 2.66699 -121 8c-28.667 7.33301 -63 28 -103 62c-60 -46.667 -116.333 -70 -169 -70h-326v180c19.333 0 60.333 -0.333008 123 -1l93 -1
c77.333 -1.33301 127.333 10.167 150 34.5s34 75.5 34 153.5v182c0 11.333 -0.333008 18.666 -1 21.999v-5h185v-247c0 -60 13 -98.333 39 -115c18.667 -12.667 60.334 -20.334 125.001 -23.001v-180z" />
    <glyph glyph-name="uFE8E" unicode="&#x627;" horiz-adv-x="469" arabic-form="final" 
d="M509 0c-152 0 -259 29.333 -321 88c-41.333 38 -62 100.333 -62 187v851h180v-772c0 -83.333 14 -134.333 42 -153c17.333 -11.333 71 -18.333 161 -21v-180z" />
    <glyph glyph-name="uFE90" unicode="&#x628;" horiz-adv-x="1713" arabic-form="final" 
d="M1746 0c-142.667 0 -238 23.333 -286 70c-61.333 -46.667 -119.333 -70 -174 -70h-948c-74.667 0 -137 30.667 -187 92c-46.667 57.333 -70 124.333 -70 201v272h180v-247c0 -51.333 10 -87.166 30 -107.499s55 -30.5 105 -30.5h837c50 0 84.5 10.167 103.5 30.5
s28.5 56.166 28.5 107.499v247h183v-247c0 -92 66 -138 198 -138v-180zM938 -334c0 -35.333 -12.167 -64.833 -36.5 -88.5s-53.833 -35.5 -88.5 -35.5c-90 0 -135 41.333 -135 124c0 72.667 42.667 109 128 109c88 0 132 -36.333 132 -109z" />
    <glyph glyph-name="uFE91" unicode="&#x628;" horiz-adv-x="586" arabic-form="initial" 
d="M520 293c0 -77.333 -24 -144.665 -72 -201.998c-50.667 -60.667 -113.667 -91 -189 -91h-295v180c188.667 0 293.667 3.66699 315 11c40 14.667 60 68.667 60 162c0 23.333 -0.5 58.666 -1.5 105.999s-1.5 82.666 -1.5 105.999h184v-272zM308 -335.999
c0 -35.333 -12.167 -64.833 -36.5 -88.5s-53.833 -35.5 -88.5 -35.5c-89.333 0 -134 41.333 -134 124c0 72 43 108 129 108c86.667 0 130 -36 130 -108z" />
    <glyph glyph-name="uFE92" unicode="&#x628;" horiz-adv-x="703" arabic-form="medial" 
d="M739 0h-56c-102 -0 -179.667 23.333 -233 70c-60 -46.667 -117.333 -70 -172 -70h-296v180c186 0 290.667 4.33301 314 13c40 14 60 67.667 60 161c0 23.333 -0.333008 58.5 -1 105.5s-1 82.167 -1 105.5h185v-247c0 -58.667 20 -97.667 60 -117
c24 -11.333 70.667 -18.333 140 -21v-180zM314 -326c0 -35.333 -12 -65 -36 -89s-53.667 -36 -89 -36c-90 0 -135 41.667 -135 125c0 71.333 43 107 129 107c87.333 0 131 -35.667 131 -107z" />
    <glyph glyph-name="uFE96" unicode="&#x62a;" horiz-adv-x="1713" arabic-form="final" 
d="M1113 865c0 -30.667 -11.168 -56 -33.501 -76s-49.166 -30 -80.499 -30c-85.333 0 -128 35.333 -128 106c0 66 39.333 99 118 99c82.667 0 124 -33 124 -99zM765.999 865c0 -30.667 -11.167 -56 -33.5 -76s-48.833 -30 -79.5 -30c-85.333 0 -128 35.333 -128 106
c0 66 38.667 99 116 99c83.333 0 125 -33 125 -99zM1746 0c-142.667 0 -238 23.333 -286 70c-61.333 -46.667 -119.333 -70 -174 -70h-948c-74.667 0 -137 30.667 -187 92c-46.667 57.333 -70 124.333 -70 201v272h180v-247c0 -51.333 10 -87.166 30 -107.499
s55 -30.5 105 -30.5h837c50 0 84.5 10.167 103.5 30.5s28.5 56.166 28.5 107.499v247h183v-247c0 -92 66 -138 198 -138v-180z" />
    <glyph glyph-name="uFE97" unicode="&#x62a;" horiz-adv-x="680" arabic-form="initial" 
d="M709 856c0 -30.667 -11.168 -56.333 -33.501 -77s-49.166 -31 -80.499 -31c-34.667 0 -64 9 -88 27c-26 20.667 -39 47.667 -39 81c0 66 38.667 99 116 99c83.333 0 125 -33 125 -99zM363.999 856.001c0 -30.667 -11.168 -56.333 -33.501 -77s-49.166 -31 -80.499 -31
c-34.667 0 -64 9 -88 27c-26 20.667 -39 47.667 -39 81c0 66 38.667 99 116 99c83.333 0 125 -33 125 -99zM605.998 293.002c0 -78 -23 -145.332 -69 -201.999c-49.333 -60.667 -112 -91 -188 -91h-385v180h329c50 0 84.667 10.167 104 30.5s29 56.166 29 107.499v247h180
v-272z" />
    <glyph glyph-name="uFE98" unicode="&#x62a;" horiz-adv-x="739" arabic-form="medial" 
d="M725 863c0 -31.333 -11 -57 -33 -77s-48.333 -30 -79 -30c-84.667 0 -127 35.667 -127 107c0 66.667 38.333 100 115 100c82.667 0 124 -33.333 124 -100zM380 863c0 -31.333 -11 -57 -33 -77s-48.333 -30 -79 -30c-84.667 0 -127 35.667 -127 107
c0 66.667 38.333 100 115 100c82.667 0 124 -33.333 124 -100zM778 0c-74 -0.666992 -129 2.33398 -165 9.00098c-30.667 12.667 -61.667 33 -93 61c-57.333 -46.667 -114.333 -70 -171 -70h-388v180h334c50 0 84.667 10.167 104 30.5s29 56.166 29 107.499v247h181v-247
c0 -59.333 13.667 -98.333 41 -117c21.333 -14 64 -21 128 -21v-180z" />
    <glyph glyph-name="uFE9A" unicode="&#x62b;" horiz-adv-x="1713" arabic-form="final" 
d="M930 1054c0 -31.333 -11.333 -57.167 -34 -77.5s-49.667 -30.5 -81 -30.5c-84 0 -126 36 -126 108c0 66.667 38.333 100 115 100c84 0 126 -33.333 126 -100zM1106 799.999c0 -30.667 -11.5 -56.501 -34.5 -77.501s-50.167 -31.5 -81.5 -31.5
c-33.333 0 -62 9.66699 -86 29c-26 20.667 -39 47.334 -39 80.001c0 66 38.333 99 115 99c84 0 126 -33 126 -99zM759 799.998c0 -30 -11.167 -55.668 -33.5 -77.001s-48.833 -32 -79.5 -32c-33.333 0 -62 9.66699 -86 29c-26.667 20.667 -40 47.334 -40 80.001
c0 66 38.333 99 115 99c82.667 0 124 -33 124 -99zM1746 -0.00292969c-142.667 0 -238 23.333 -286 70c-61.333 -46.667 -119.333 -70 -174 -70h-948c-74.667 0 -137 30.667 -187 92c-46.667 57.333 -70 124.333 -70 201v272h180v-247c0 -51.333 10 -87.166 30 -107.499
s55 -30.5 105 -30.5h837c50 0 84.5 10.167 103.5 30.5s28.5 56.166 28.5 107.499v247h183v-247c0 -92 66 -138 198 -138v-180z" />
    <glyph glyph-name="uFE9B" unicode="&#x62b;" horiz-adv-x="680" arabic-form="initial" 
d="M529 1054c0 -32 -11.333 -58.333 -34 -79s-50 -31 -82 -31c-34.667 0 -64 9.66699 -88 29c-26.667 20.667 -40 47.667 -40 81c0 66.667 38.667 100 116 100c85.333 0 128 -33.333 128 -100zM704 800c0 -30.667 -11.5 -56.833 -34.5 -78.5s-49.833 -32.5 -80.5 -32.5
c-34 0 -63.333 10 -88 30c-26.667 21.333 -40 48.333 -40 81c0 66 39 99 117 99c84 0 126 -33 126 -99zM358 800.001c0 -30.667 -11.332 -56.833 -33.999 -78.5s-49.334 -32.5 -80.001 -32.5c-34 0 -63.333 10 -88 30c-26.667 21.333 -40 48.333 -40 81c0 66 39 99 117 99
c83.333 0 125 -33 125 -99zM606.001 293.002c0 -78 -23 -145.332 -69 -201.999c-49.333 -60.667 -112 -91 -188 -91h-385v180h329c50 0 84.667 10.167 104 30.5s29 56.166 29 107.499v247h180v-272z" />
    <glyph glyph-name="uFE9C" unicode="&#x62b;" horiz-adv-x="739" arabic-form="medial" 
d="M599 1054c0 -32 -11.333 -58.333 -34 -79s-50 -31 -82 -31c-34.667 0 -64 9.66699 -88 29c-26.667 20.667 -40 47.667 -40 81c0 66.667 38.667 100 116 100c85.333 0 128 -33.333 128 -100zM774 800c0 -30.667 -11.5 -56.833 -34.5 -78.5s-49.833 -32.5 -80.5 -32.5
c-34 0 -63.333 10 -88 30c-26.667 21.333 -40 48.333 -40 81c0 66 39 99 117 99c84 0 126 -33 126 -99zM428 800.001c0 -30.667 -11.332 -56.833 -33.999 -78.5s-49.334 -32.5 -80.001 -32.5c-34 0 -63.333 10 -88 30c-26.667 21.333 -40 48.333 -40 81c0 66 39 99 117 99
c83.333 0 125 -33 125 -99zM778.001 0.00195312c-74 -0.666992 -129 2.33398 -165 9.00098c-30.667 12.667 -61.667 33 -93 61c-57.333 -46.667 -114.333 -70 -171 -70h-388v180h334c50 0 84.667 10.167 104 30.5s29 56.166 29 107.499v247h181v-247
c0 -59.333 13.667 -98.333 41 -117c21.333 -14 64 -21 128 -21v-180z" />
    <glyph glyph-name="uFE9E" unicode="&#x62c;" horiz-adv-x="1104" arabic-form="final" 
d="M1149 0c-109.333 3.33301 -182.669 15.335 -220.002 36.002c-52 28.667 -82.333 58.667 -91 90c-6.66699 22 -14.667 50.333 -24 85l-353 -195c-160 -88.667 -240 -200 -240 -334c0 -97.333 38 -183.833 114 -259.5s162.667 -113.5 260 -113.5h525l15 -177h-492
c-169.333 0 -309.666 51.667 -420.999 155c-114.667 105.333 -172 241.666 -172 408.999c0 197.333 88 344.666 264 441.999l551 303c-50.667 78 -183 114.333 -397 109c-211.333 -4.66699 -278.666 -7 -201.999 -7l-22 176h434c250.667 0 376 -123.667 376 -371l-164 -93
c14.667 -36.667 52.667 -60 114 -70c20 -3.33301 68.333 -5 145 -5v-180zM822.997 -325.998c0 -34.667 -12.333 -64.5 -37 -89.5s-54 -37.5 -88 -37.5c-38.667 0 -70.667 10.667 -96 32c-27.333 22.667 -41 52.667 -41 90c0 73.333 43.333 110 130 110
c88 0 132 -35 132 -105z" />
    <glyph glyph-name="uFE9F" unicode="&#x62c;" horiz-adv-x="1031" arabic-form="initial" 
d="M996 348l-411.998 -235c-96.667 -55.333 -198 -89.666 -304 -102.999c-52.667 -6.66699 -160.334 -10 -323.001 -10v180c232.667 0 397 22.667 493 68c7.33301 3.33301 50.666 26 129.999 68l220 123c-23.333 49.333 -62 80.666 -116 93.999
c-23.333 5.33301 -76.333 8 -159 8l-315 2l-25 176h444c244.667 0 367 -123.667 367 -371zM349.002 -323c0 -34.667 -11.833 -64.333 -35.5 -89s-53.167 -37 -88.5 -37c-38.667 0 -70.667 10.667 -96 32c-27.333 22.667 -41 53 -41 91c0 74.667 43.667 112 131 112
c86.667 0 130 -36.333 130 -109z" />
    <glyph glyph-name="uFEA0" unicode="&#x62c;" horiz-adv-x="1031" arabic-form="medial" 
d="M1059 0c-169.333 4 -263.001 43.332 -281.001 117.999c-8 30 -15.667 61 -23 93c-173.333 -102.667 -298.666 -163.667 -375.999 -183c-71.333 -18.667 -212 -28 -422 -28v180c232 0 396.333 22.667 493 68c20 8.66699 136.667 72.334 350 191.001
c-23.333 48.667 -62 80 -116 94c-22 5.33301 -75 8 -159 8l-315 2l-25 176h444c244.667 0 367 -123.667 367 -371l-167 -92c0 -50.667 76.667 -76 230 -76v-180zM518.999 -334.001c0 -34 -12 -63.5 -36 -88.5s-53.333 -37.5 -88 -37.5c-38.667 0 -70.667 10.667 -96 32
c-27.333 22.667 -41 52.667 -41 90c0 73.333 43.667 110 131 110c86.667 0 130 -35.333 130 -106z" />
    <glyph glyph-name="uFEA2" unicode="&#x62d;" horiz-adv-x="1104" arabic-form="final" 
d="M1151 0c-181.333 0 -285.001 41.999 -311.001 125.999c-5.33301 16.667 -13.666 45 -24.999 85l-351 -195c-160.667 -89.333 -241 -200.666 -241 -333.999c0 -96.667 38.167 -183 114.5 -259s163.166 -114 260.499 -114h525l15 -177h-494
c-190.667 0 -343.667 67.667 -459 203c-89.333 104.667 -134 221.667 -134 351v39c0.666992 0.666992 2.33398 13.667 5.00098 39c20.667 166 107 290.667 259 374l555 303c-26 47.333 -66 77 -120 89c-19.333 4 -72.333 7.33301 -159 10
c-57.333 1.33301 -164.333 2.33301 -321 3l-25 176h435c246.667 0 372 -123.667 376 -371l-163 -93c7.33301 -50 93.333 -75 258 -75v-180z" />
    <glyph glyph-name="uFEA3" unicode="&#x62d;" horiz-adv-x="1031" arabic-form="initial" 
d="M996 348l-411.999 -235.001c-92 -52.667 -193.333 -86 -304 -100c-45.333 -6 -153 -10.333 -323 -13v180h144c132 0 254.333 25.333 367 76c19.333 9.33301 130 70.333 332 183c-19.333 44.667 -60 75.334 -122 92.001c-16 4 -172 8 -468 12l-25 176h444
c243.333 0 365.666 -123.667 366.999 -371z" />
    <glyph glyph-name="uFEA4" unicode="&#x62d;" horiz-adv-x="1031" arabic-form="medial" 
d="M1059 0c-166 0 -259.667 39.332 -281 117.999c-4 14 -8.33301 30.667 -13 50l-10 43c-162 -98 -287.667 -158.333 -377 -181c-70.667 -17.333 -211 -27.333 -421 -30v180h144c128 0 250.333 25.333 367 76c33.333 14.667 144 75.667 332 183
c-20 46 -60.667 76.667 -122 92c-10 2.66699 -46.667 5 -110 7c-32 0.666992 -151.333 2.33398 -358 5.00098l-25 176h444c240.667 0 363 -124.667 367 -374l-167 -90c0 -50 76.667 -75 230 -75v-180z" />
    <glyph glyph-name="uFEA6" unicode="&#x62e;" horiz-adv-x="1104" arabic-form="final" 
d="M739 1045c0 -35.333 -12 -65.167 -36 -89.5s-53.667 -36.5 -89 -36.5c-90.667 0 -136 42 -136 126c0 72.667 43.667 109 131 109c86.667 0 130 -36.333 130 -109zM1149 -0.000976562c-109.333 3.33301 -182.669 15.335 -220.002 36.002c-52 28.667 -82.333 58.667 -91 90
c-6.66699 22 -14.667 50.333 -24 85l-353 -195c-160 -88.667 -240 -200 -240 -334c0 -97.333 38 -183.833 114 -259.5s162.667 -113.5 260 -113.5h525l15 -177h-492c-169.333 0 -309.666 51.667 -420.999 155c-114.667 105.333 -172 241.666 -172 408.999
c0 197.333 88 344.666 264 441.999l551 303c-50.667 78 -183 114.333 -397 109c-211.333 -4.66699 -278.666 -7 -201.999 -7l-22 176h434c250.667 0 376 -123.667 376 -371l-164 -93c14.667 -36.667 52.667 -60 114 -70c20 -3.33301 68.333 -5 145 -5v-180z" />
    <glyph glyph-name="uFEA7" unicode="&#x62e;" horiz-adv-x="1031" arabic-form="initial" 
d="M649 1041c0 -34 -12.333 -63.333 -37 -88s-54 -37 -88 -37c-90.667 0 -136 41.667 -136 125c0 72 43.667 108 131 108c86.667 0 130 -36 130 -108zM996 348l-411.998 -235c-96.667 -55.333 -198 -89.666 -304 -102.999c-52.667 -6.66699 -160.334 -10 -323.001 -10v180
c232.667 0 397 22.667 493 68c7.33301 3.33301 50.666 26 129.999 68l220 123c-23.333 49.333 -62 80.666 -116 93.999c-23.333 5.33301 -76.333 8 -159 8l-315 2l-25 176h444c244.667 0 367 -123.667 367 -371z" />
    <glyph glyph-name="uFEA8" unicode="&#x62e;" horiz-adv-x="1031" arabic-form="medial" 
d="M609 1070c0 -35.333 -11.999 -65.167 -35.999 -89.5s-53.667 -36.5 -89 -36.5c-38.667 0 -70.834 11.5 -96.501 34.5s-38.5 53.5 -38.5 91.5c0 70.667 43 106 129 106c87.333 0 131 -35.333 131 -106zM1059 -0.000976562c-169.333 4 -263.001 43.332 -281.001 117.999
c-8 30 -15.667 61 -23 93c-173.333 -102.667 -298.666 -163.667 -375.999 -183c-71.333 -18.667 -212 -28 -422 -28v180c232 0 396.333 22.667 493 68c20 8.66699 136.667 72.334 350 191.001c-23.333 48.667 -62 80 -116 94c-22 5.33301 -75 8 -159 8l-315 2l-25 176h444
c244.667 0 367 -123.667 367 -371l-167 -92c0 -50.667 76.667 -76 230 -76v-180z" />
    <glyph glyph-name="uFEAA" unicode="&#x62f;" horiz-adv-x="1171" arabic-form="final" 
d="M1225 0l-81.999 0.000976562c-68 0 -144 41.333 -228 124c-54 -82.667 -133.667 -124 -239 -124h-558l-25 180h572c66 0 99 22.667 99 68c0 25.333 -9.33301 47.666 -28 66.999l-405 431l122 122l541 -573c47.333 -50 79.666 -80 96.999 -90
c30 -16.667 74.667 -25 134 -25v-180z" />
    <glyph glyph-name="uFEAC" unicode="&#x630;" horiz-adv-x="1171" arabic-form="final" 
d="M475 1076c0 -34 -12.167 -63 -36.5 -87s-53.833 -36 -88.5 -36c-90.667 0 -136 41 -136 123c0 72.667 43.667 109 131 109c86.667 0 130 -36.333 130 -109zM1224 0h-84c-67.333 -0 -142.333 41.333 -225 124c-33.333 -48 -66.833 -80.667 -100.5 -98
s-79.834 -26 -138.501 -26h-561l-25 180h573c65.333 0 98 22.667 98 68c0 26 -8.66699 48.333 -26 67l-406 431l121 122l541 -573c44.667 -47.333 77.334 -77 98.001 -89c30 -17.333 75 -26 135 -26v-180z" />
    <glyph glyph-name="uFEAE" unicode="&#x631;" horiz-adv-x="915" arabic-form="final" 
d="M946 0c-90.667 0 -154.999 28.332 -192.999 84.999c0 -150.667 -37.333 -275.667 -112 -375c-82 -110 -196.333 -165 -343 -165h-233l-29 180h248c77.333 0 143.666 24.333 198.999 73c58 50.667 87 114.334 87 191.001v576h180v-259c0 -81.333 65.333 -123.333 196 -126
v-180z" />
    <glyph glyph-name="uFEB0" unicode="&#x632;" horiz-adv-x="915" arabic-form="final" 
d="M744 1045c0 -35.333 -12 -65.167 -36 -89.5s-53.667 -36.5 -89 -36.5c-92 0 -138 42 -138 126c0 70.667 44 106 132 106c87.333 0 131 -35.333 131 -106zM946 -0.000976562c-94.667 1.33301 -159.001 29.667 -193.001 85c0 -150.667 -37.333 -275.667 -112 -375
c-82 -110 -196.333 -165 -343 -165h-233l-29 180h248c74.667 0 140.334 25 197.001 75c59.333 52 89 115 89 189v576h180v-259c0 -84 65.333 -126 196 -126v-180z" />
    <glyph glyph-name="uFEB2" unicode="&#x633;" horiz-adv-x="2298" arabic-form="final" 
d="M2334 0c-70 1.33301 -117.002 5.66504 -141.002 12.998c-46 12 -82.333 39.667 -109 83c-53.333 -76 -127.666 -114 -222.999 -114c-89.333 0 -168.666 40.667 -237.999 122c-64.667 -84.667 -141 -127 -229 -127c-63.333 0 -123.333 25.667 -180 77
c0 -141.333 -38.333 -259.666 -115 -354.999c-82.667 -102.667 -192.667 -154 -330 -154h-280c-129.333 0 -236.333 45.667 -321 137c-82 88.667 -123 198.334 -123 329.001v374h180v-382c0 -82 27.167 -148.833 81.5 -200.5s122.5 -77.5 204.5 -77.5h235
c84 0 153 25.333 207 76s81 118 81 202v562h180v-267c0 -42.667 15 -77.334 45 -104.001s66.333 -40 109 -40c80.667 0 121 37.333 121 112v299h180v-265c0 -41.333 15.167 -76 45.5 -104s66.5 -42 108.5 -42c82 0 123 37.333 123 112v299h178v-276
c0 -41.333 22 -72.333 66 -93c12.667 -5.33301 60.667 -10.666 144 -15.999v-180z" />
    <glyph glyph-name="uFEB3" unicode="&#x633;" horiz-adv-x="1455" arabic-form="initial" 
d="M1390 289c0 -89.333 -20.333 -161.333 -61 -216c-45.333 -62 -111.333 -93 -198 -93c-84.667 0 -165.667 40.333 -243 121c-68.667 -79.333 -141.667 -119 -219 -119c-81.333 0 -163 47.333 -245 142c-72 -82.667 -150.333 -124 -235 -124h-229v180h216
c83.333 0 125 44.667 125 134v251h177v-265c0 -42.667 15.333 -77.667 46 -105s67.667 -41 111 -41c82 0 123 37.333 123 112v299h175v-265c0 -42 15.167 -76.833 45.5 -104.5s66.833 -41.5 109.5 -41.5c84 0 126 37.333 126 112v299h176v-276z" />
    <glyph glyph-name="uFEB4" unicode="&#x633;" horiz-adv-x="1561" arabic-form="medial" 
d="M1589 0c-70 1.33301 -116.669 5.66504 -140.002 12.998c-46.667 12.667 -82 40.334 -106 83.001c-55.333 -77.333 -124.666 -116 -207.999 -116c-84 0 -166.333 39.667 -247 119c-70 -79.333 -157.333 -119 -262 -119c-97.333 0 -177.666 42 -240.999 126
c-39.333 -51.333 -106.333 -83.666 -201 -96.999c-42 -6 -120 -9 -234 -9v180h151c66 0 112 8.33301 138 25c34 22 51 65.667 51 131v229h176v-267c0 -42 15.333 -76.5 46 -103.5s67 -40.5 109 -40.5c82 0 123 37.333 123 112v299h177v-265c0 -42 15.667 -77 47 -105
c29.333 -27.333 65.333 -41 108 -41c83.333 0 125 37.333 125 112v299h178v-276c0 -42 21.667 -73 65 -93c12.667 -6 61 -11.333 145 -16v-180z" />
    <glyph glyph-name="uFEB6" unicode="&#x634;" horiz-adv-x="2298" arabic-form="final" 
d="M1568 941c-35.333 0 -65 9.33301 -89 28c-26 20 -39 47 -39 81c0 66 40.333 99 121 99c30 0 57 -8 81 -24c27.333 -18 41 -41 41 -69c0 -32 -11.333 -59.167 -34 -81.5s-49.667 -33.5 -81 -33.5zM1856 795c0 -30.667 -11.333 -56.167 -34 -76.5s-49.667 -30.5 -81 -30.5
c-34.667 0 -64 9 -88 27c-26.667 20 -40 46.667 -40 80c0 66.667 39 100 117 100c84 0 126 -33.333 126 -100zM1508 795c0 -30 -11.5 -55.333 -34.5 -76s-49.5 -31 -79.5 -31c-34.667 0 -64 9 -88 27c-26.667 20 -40 46.667 -40 80c0 66.667 39 100 117 100
c83.333 0 125 -33.333 125 -100zM2328 0l-63.999 -0.000976562c-83.333 0 -146.333 33 -189 99c-54 -76.667 -128.667 -115 -224 -115c-94 0 -172.667 40.667 -236 122c-64 -84 -139 -126 -225 -126c-65.333 0 -126 24.667 -182 74c-2 -141.333 -41 -259.333 -117 -354
c-82.667 -103.333 -192.667 -155 -330 -155h-278c-128 0 -234.667 46 -320 138c-82.667 90 -124 199.333 -124 328v374h180v-382c0 -84 26.667 -151.333 80 -202s122 -76 206 -76h234c82 0 150.667 25.833 206 77.5s83 118.5 83 200.5v562h180v-267
c0 -41.333 14.333 -75.666 43 -102.999s63.667 -41 105 -41c84.667 0 127 37.333 127 112v299h180v-265c0 -43.333 14.667 -78.5 44 -105.5s65.666 -40.5 108.999 -40.5c82.667 0 124 37.333 124 112v299h178v-276c0 -72.667 70 -109 210 -109v-180z" />
    <glyph glyph-name="uFEB7" unicode="&#x634;" horiz-adv-x="1455" arabic-form="initial" 
d="M933 1054c0 -32 -11.333 -58.333 -34 -79s-49.667 -31 -81 -31c-33.333 0 -62.333 10 -87 30c-26.667 21.333 -40 48 -40 80c0 64.667 38.333 97 115 97c84.667 0 127 -32.333 127 -97zM1109 800c0 -32 -11.168 -58.501 -33.501 -79.501s-49.5 -31.5 -81.5 -31.5
c-33.333 0 -62.666 10.333 -87.999 31s-38 47.334 -38 80.001c0 64 37.667 96 113 96c85.333 0 128 -32 128 -96zM760.999 799.999c0 -30.667 -11.167 -56.834 -33.5 -78.501s-48.833 -32.5 -79.5 -32.5c-34 0 -63.333 10.333 -88 31s-37 47.334 -37 80.001
c0 64 38.333 96 115 96c82 0 123 -32 123 -96zM1390 288.999c0 -86.667 -19.998 -157.667 -59.998 -213c-44.667 -62.667 -108.667 -94 -192 -94c-95.333 0 -178 40.667 -248 122c-69.333 -80 -142.333 -120 -219 -120c-86.667 0 -168.334 47.333 -245.001 142
c-80.667 -84 -159.667 -126 -237 -126h-229v180h216c83.333 0 125 43.667 125 131v253l177 1v-265c0 -43.333 14.667 -78.5 44 -105.5s65.666 -40.5 108.999 -40.5c84.667 0 127 37.333 127 112v299h175v-265c0 -42.667 15 -77.667 45 -105s66.667 -41 110 -41
c84 0 126 37.333 126 112v299h176v-276z" />
    <glyph glyph-name="uFEB8" unicode="&#x634;" horiz-adv-x="1561" arabic-form="medial" 
d="M778 995c-34.667 0 -64.333 9.66797 -89 29.001c-26.667 21.333 -40 48.666 -40 81.999c0 64.667 40.333 97 121 97c30.667 0 57.667 -7.66699 81 -23c28 -17.333 42 -40.333 42 -69c0 -32.667 -11 -60.167 -33 -82.5s-49.333 -33.5 -82 -33.5zM1065 851.001
c0 -31.333 -11.167 -57.5 -33.5 -78.5s-49.5 -31.5 -81.5 -31.5c-34 0 -63.667 10 -89 30s-38 46.667 -38 80c0 65.333 38.667 98 116 98c84 0 126 -32.667 126 -98zM716.001 851.001c0 -30.667 -11.167 -56.668 -33.5 -78.001s-48.833 -32 -79.5 -32
c-34 0 -63.333 10 -88 30c-26.667 20.667 -40 47.334 -40 80.001c0 65.333 38.667 98 116 98c83.333 0 125 -32.667 125 -98zM1589 0h-69l-65 11c-48.667 8.66699 -87.334 38 -116.001 88c-55.333 -78 -123.666 -117 -204.999 -117c-85.333 0 -168.333 40.667 -249 122
c-72 -81.333 -157.333 -122 -256 -122s-180 42.333 -244 127c-46 -52 -113.333 -85 -202 -99c-42 -6.66699 -119.667 -10 -233 -10v180h165c62 0 103.333 7.66699 124 23c34 24.667 51 69 51 133v229h176v-267c0 -42.667 15.667 -77.667 47 -105
c29.333 -26 65.333 -39 108 -39c82 0 123 37.333 123 112v299h177v-265c0 -42.667 15.167 -77.667 45.5 -105s66.833 -41 109.5 -41c83.333 0 125 37.333 125 112v299h178v-276c0 -72.667 70 -109 210 -109v-180z" />
    <glyph glyph-name="uFEBA" unicode="&#x635;" horiz-adv-x="2253" arabic-form="final" 
d="M2284 0l-818.001 -0.000976562c-134.667 0 -215 31.667 -241 95c0 -158.667 -34.667 -286.667 -104 -384c-80 -110.667 -196 -166 -348 -166h-278c-134 0 -241 48.333 -321 145c-75.333 90.667 -113 204.334 -113 341.001v354h175v-396
c0 -73.333 27 -135.666 81 -186.999s118 -77 192 -77h252c70 0 134.5 26.667 193.5 80s88.5 114.666 88.5 183.999v576h181v-267c0 -78 57 -117.333 171 -118c142.667 360.667 307.667 541 495 541c122.667 0 215.334 -60 278.001 -180c28 -54 42 -122.333 42 -205
c0 -44.667 -9 -96.667 -27 -156h101v-180zM2025 360.999c0 118.667 -35.667 178 -107 178c-104.667 0 -217.667 -119.667 -339 -359h347c66 0 99 60.333 99 181z" />
    <glyph glyph-name="uFEBB" unicode="&#x635;" horiz-adv-x="1548" arabic-form="initial" 
d="M1449 349c0 -50.667 -7.66699 -103.333 -23 -158c-22.667 -81.333 -58 -135 -106 -161c-37.333 -20 -99.333 -30 -186 -30h-456c-124.667 0 -210.334 48.667 -257.001 146c-71.333 -97.333 -152.333 -146 -243 -146h-218v180h200c84 0 126 44.667 126 134v251h178v-231
c0 -102 58 -153.333 174 -154c138.667 359.333 304.334 539 497.001 539c44 0 90.667 -13.667 140 -41c116 -65.333 174 -175 174 -329zM1269 354.001c0 80.667 -18.333 136 -55 166c-15.333 12.667 -33.333 19 -54 19c-106 0 -221 -119.667 -345 -359h353
c67.333 0 101 58 101 174z" />
    <glyph glyph-name="uFEBC" unicode="&#x635;" horiz-adv-x="1561" arabic-form="medial" 
d="M1589 0h-911c-124.667 0 -210.334 48.667 -257.001 146c-71.333 -97.333 -152.333 -146 -243 -146h-218v180h200c84 0 126 44.667 126 134v251h178v-231c0 -102 58 -153.333 174 -154c138.667 359.333 304.334 539 497.001 539c48 0 95.667 -13.667 143 -41
c114 -66.667 171 -176.667 171 -330c0 -46 -9.33301 -102 -28 -168h168v-180zM1269 354c0 80.667 -18.333 136 -55 166c-15.333 12.667 -33.333 19 -54 19c-106 0 -221 -119.667 -345 -359h353c67.333 0 101 58 101 174z" />
    <glyph glyph-name="uFEBE" unicode="&#x636;" horiz-adv-x="2253" arabic-form="final" 
d="M1863 1039c0 -34.667 -12.333 -64 -37 -88s-54 -36 -88 -36c-91.333 0 -137 41.333 -137 124c0 71.333 44 107 132 107c86.667 0 130 -35.667 130 -107zM2283 0l-819 -0.00195312c-142 0 -222 31.667 -240 95c-2.66699 -160 -38 -288 -106 -384
c-78.667 -110.667 -194.667 -166 -348 -166h-276c-131.333 0 -238 49 -320 147c-76.667 92.667 -115 205.667 -115 339v354h175v-396c0 -71.333 27.5 -133.166 82.5 -185.499s118.167 -78.5 189.5 -78.5h253c67.333 0 131.166 27.333 191.499 82s90.5 115.334 90.5 182.001
v576h180v-267c0 -78.667 57.333 -118 172 -118c148 360.667 313 541 495 541c46.667 0 95.334 -14.333 146.001 -43c114 -66 171 -177 171 -333c0 -57.333 -8.66699 -112.333 -26 -165h104v-180zM2023 353.998c0 123.333 -36 185 -108 185c-58 0 -124.667 -46.333 -200 -139
c-57.333 -70.667 -103 -144 -137 -220h346c66 0 99 58 99 174z" />
    <glyph glyph-name="uFEBF" unicode="&#x636;" horiz-adv-x="1548" arabic-form="initial" 
d="M1023 1064c0 -34.667 -12.333 -64.167 -37 -88.5s-54 -36.5 -88 -36.5c-89.333 0 -134 41.667 -134 125c0 71.333 43 107 129 107c86.667 0 130 -35.667 130 -107zM1449 351c0 -52.667 -7.66699 -105.999 -23 -159.999c-22 -80.667 -57.333 -134.334 -106 -161.001
c-36.667 -20 -98.667 -30 -186 -30h-456c-120 0 -206.333 48.667 -259 146c-70 -97.333 -151 -146 -243 -146h-216v180h200c84 0 126 43.667 126 131v253l178 1v-231c0 -102.667 58.667 -154 176 -154c148 359.333 314 539 498 539c47.333 0 94 -13.667 140 -41
c114 -68.667 171 -177.667 171 -327zM1160 539.001c-60 0 -128 -46 -204 -138c-57.333 -69.333 -104.333 -143 -141 -221h350c67.333 0 101 56 101 168c0 127.333 -35.333 191 -106 191z" />
    <glyph glyph-name="uFEC0" unicode="&#x636;" horiz-adv-x="1561" arabic-form="medial" 
d="M1028 1068c0 -34.667 -12.5 -64 -37.5 -88s-54.833 -36 -89.5 -36c-90 0 -135 41.333 -135 124c0 72 43.333 108 130 108c88 0 132 -36 132 -108zM1589 0h-911c-120 0 -206.333 48.667 -259 146c-70 -97.333 -151 -146 -243 -146h-216v180h200c84 0 126 43.667 126 131
v253l178 1v-231c0 -102.667 58.667 -154 176 -154c148 359.333 314 539 498 539c48 0 94.667 -13.667 140 -41c112 -69.333 168 -179.333 168 -330c0 -56.667 -9 -112.667 -27 -168h170v-180zM1160 539c-60 0 -128 -46 -204 -138c-57.333 -69.333 -104.333 -143 -141 -221
h350c67.333 0 101 56 101 168c0 127.333 -35.333 191 -106 191z" />
    <glyph glyph-name="uFEC2" unicode="&#x637;" horiz-adv-x="1043" arabic-form="final" 
d="M1061 0l-985 0.000976562l-36 180h154v974h176v-643c114 138.667 218.333 208 313 208c38 0 82 -13.667 132 -41c116 -64.667 174 -187 174 -367c0 -38.667 -8.33301 -82.334 -25 -131.001h97v-180zM809 369.001c0 113.333 -36.333 170 -109 170
c-59.333 0 -126.666 -46.333 -201.999 -139c-56 -68 -102.333 -141.333 -139 -220h346c29.333 0 55.666 18.667 78.999 56c16.667 26.667 25 71 25 133z" />
    <glyph glyph-name="uFEC3" unicode="&#x637;" horiz-adv-x="986" arabic-form="initial" 
d="M629 0h-665.001v180h154v974h180v-643c115.333 136.667 218 205 308 205c92.667 0 169.334 -41 230.001 -123c54.667 -74 82 -159.667 82 -257s-23.333 -176 -70 -236c-51.333 -66.667 -124.333 -100 -219 -100zM620.999 536
c-58.667 0 -126.334 -45.666 -203.001 -136.999c-61.333 -72.667 -107.666 -146.334 -138.999 -221.001h350c69.333 0 104 54.333 104 163c0 130 -37.333 195 -112 195z" />
    <glyph glyph-name="uFEC4" unicode="&#x637;" horiz-adv-x="949" arabic-form="medial" 
d="M966 0h-1016v180h131v974h175v-643c114.667 138.667 219.334 208 314.001 208c38.667 0 83 -13.667 133 -41c112 -62.667 168 -175.334 168 -338.001c0 -63.333 -7.66699 -116.666 -23 -159.999h118v-180zM695.999 369c0 113.333 -35.999 169.999 -107.999 169.999
c-59.333 0 -127 -46.333 -203 -139c-56.667 -69.333 -103.334 -142.666 -140.001 -219.999h348c28.667 0 54.667 18.667 78 56c16.667 26.667 25 71 25 133z" />
    <glyph glyph-name="uFEC6" unicode="&#x638;" horiz-adv-x="1043" arabic-form="final" 
d="M829 1053c0 -34.667 -12.333 -64.167 -37 -88.5s-54 -36.5 -88 -36.5c-89.333 0 -134 41.667 -134 125c0 71.333 43 107 129 107c86.667 0 130 -35.667 130 -107zM1061 0h-987.001l-34 180h154v974h176v-643c110.667 138.667 214 208 310 208
c42.667 0 87.334 -13.667 134.001 -41c116.667 -69.333 175 -170.666 175 -303.999c0 -78.667 -8.66699 -143.334 -26 -194.001h98v-180zM805.999 359c0 120 -35.667 180.001 -107 180.001c-59.333 0 -127.333 -46 -204 -138c-60.667 -72.667 -107 -146.334 -139 -221.001
h347c68.667 0 103 59.667 103 179z" />
    <glyph glyph-name="uFEC7" unicode="&#x638;" horiz-adv-x="986" arabic-form="initial" 
d="M744 1036c0 -35.333 -12 -65.167 -36 -89.5s-53.667 -36.5 -89 -36.5c-90.667 0 -136 42 -136 126c0 71.333 43.333 107 130 107c87.333 0 131 -35.667 131 -107zM629 -0.000976562h-665.001v180h154v974h180v-643c115.333 136.667 218 205 308 205
c92.667 0 169.334 -41 230.001 -123c54.667 -74 82 -159.667 82 -257s-23.333 -176 -70 -236c-51.333 -66.667 -124.333 -100 -219 -100zM620.999 535.999c-58.667 0 -126.334 -45.666 -203.001 -136.999c-61.333 -72.667 -107.666 -146.334 -138.999 -221.001h350
c69.333 0 104 54.333 104 163c0 130 -37.333 195 -112 195z" />
    <glyph glyph-name="uFEC8" unicode="&#x638;" horiz-adv-x="949" arabic-form="medial" 
d="M753 1068c0 -35.333 -12.167 -65.333 -36.5 -90s-53.833 -37 -88.5 -37c-91.333 0 -137 42.333 -137 127c0 70.667 43.333 106 130 106c88 0 132 -35.333 132 -106zM966 0h-1017l1 180h131v974h175v-643c110.667 138.667 214.667 208 312 208c44 0 88 -13.667 132 -41
c114 -72 171 -172.667 171 -302c0 -78 -8.66699 -143.333 -26 -196h121v-180zM694 359c0 120 -36 180.001 -108 180.001c-58.667 0 -126.334 -46 -203.001 -138c-61.333 -72.667 -107.666 -146.334 -138.999 -221.001h346c69.333 0 104 59.667 104 179z" />
    <glyph glyph-name="uFECA" unicode="&#x639;" horiz-adv-x="1115" arabic-form="final" 
d="M1154 0c-122.667 0 -211.332 5 -265.999 15c-101.333 18 -179 57.333 -233 118c-288 -122 -432 -274 -432 -456c0 -92 40.667 -179 122 -261c72 -71.333 153 -107 243 -107h525l18 -177h-496c-160 0 -297.333 54.333 -412 163s-172 242.667 -172 402
c0 238 157.333 424.333 472 559l-239 235l121 228h384c123.333 0 202.333 -43.667 237 -131c11.333 -27.333 17 -50 17 -68c0 -74 -21.333 -136 -64 -186c-31.333 -37.333 -86.333 -77.333 -165 -120c53.333 -22.667 166.666 -34 339.999 -34v-180zM860.002 491
c0 16.667 -11 30.333 -33 41c-18 8.66699 -36 13 -54 13h-284l199 -209c114.667 63.333 172 115 172 155z" />
    <glyph glyph-name="uFECB" unicode="&#x639;" horiz-adv-x="904" arabic-form="initial" 
d="M865 0h-905v180h256c-37.333 86 -56 163 -56 231s19.833 128.667 59.5 182s91.834 89 156.501 107c44.667 12.667 94.667 19 150 19c96 0 188.333 -44.333 277 -133l-89 -140c-94.667 72 -175 108 -241 108c-94.667 0 -142 -57.667 -142 -173
c0 -50 11.667 -94.333 35 -133c27.333 -45.333 64.666 -68 111.999 -68h358z" />
    <glyph glyph-name="uFECC" unicode="&#x639;" horiz-adv-x="831" arabic-form="medial" 
d="M860 0c-112 0 -190.33 5.99902 -234.997 17.999c-61.333 15.333 -129.333 53 -204 113c-75.333 -62 -150.333 -102 -225 -120c-17.333 -4 -97 -7.66699 -239 -11v180c167.333 0 272.666 21.667 315.999 65l-250 246l121 228h386c123.333 0 201.666 -43.333 234.999 -130
c10.667 -28.667 16 -51.667 16 -69c0 -73.333 -20.333 -133.666 -61 -180.999c-26 -30 -77.667 -69.333 -155 -118c71.333 -27.333 169.666 -41 294.999 -41v-180zM586.003 488.999c0 16 -10.334 29.667 -31.001 41c-17.333 10 -34.666 15 -51.999 15h-287l197 -207
c115.333 58.667 173 109 173 151z" />
    <glyph glyph-name="uFECE" unicode="&#x63a;" horiz-adv-x="1115" arabic-form="final" 
d="M838 1045c0 -35.333 -12 -65.167 -36 -89.5s-53.333 -36.5 -88 -36.5c-92 0 -138 42 -138 126c0 70.667 44 106 132 106c86.667 0 130 -35.333 130 -106zM1156 179.999l-2.00098 -180l-163 5c-151.333 5.33301 -263.666 48 -336.999 128
c-288.667 -128.667 -433 -280.667 -433 -456c0 -94 37.333 -178.833 112 -254.5s159 -113.5 253 -113.5h527l18 -177h-496c-160.667 0 -297.667 52.667 -411 158c-115.333 108 -173 241.667 -173 401c0 252.667 157.333 441 472 565l-239 235l121 228h384
c128 0 208 -43.667 240 -131c9.33301 -25.333 14 -48 14 -68c0 -18.667 -3 -48.667 -9 -90c-9.33301 -65.333 -82.333 -137.333 -219 -216c59.333 -22.667 173 -34 341 -34zM859.999 493.999l-9 22c-20.667 19.333 -46.667 29 -78 29h-284l199 -207
c114.667 60.667 172 112.667 172 156z" />
    <glyph glyph-name="uFECF" unicode="&#x63a;" horiz-adv-x="904" arabic-form="initial" 
d="M599 1041c0 -34 -12.333 -63.333 -37 -88s-54 -37 -88 -37c-90.667 0 -136 41.667 -136 125c0 72 43.667 108 131 108c86.667 0 130 -36 130 -108zM865 0h-905.001v180h256c-38.667 78 -58 151.667 -58 221c0 96 30.667 173.333 92 232s140 88 236 88
c116.667 0 222.334 -45 317.001 -135l-89 -140c-98.667 72 -178.334 108 -239.001 108c-96 0 -144 -56.333 -144 -169c0 -52 11.333 -97 34 -135c26.667 -46.667 64.334 -70 113.001 -70h358z" />
    <glyph glyph-name="uFED0" unicode="&#x63a;" horiz-adv-x="831" arabic-form="medial" 
d="M503 1068c0 -34.667 -12.333 -64 -37 -88s-54 -36 -88 -36c-89.333 0 -134 41.333 -134 124c0 72 42.333 108 127 108c88 0 132 -36 132 -108zM860 0c-102 -0.666992 -179 5.66895 -231 19.002c-68.667 17.333 -138.667 54.666 -210 111.999
c-95.333 -79.333 -187.333 -122 -276 -128c-22.667 -2 -50 -3 -82 -3h-106l2 180c169.333 3.33301 274.666 25 315.999 65c-107.333 108.667 -190.666 190.667 -249.999 246c44 76.667 84 152.667 120 228h387c126.667 0 206.667 -43.333 240 -130
c10.667 -28.667 16 -51.667 16 -69c0 -11.333 -2.66699 -41.333 -8 -90c-8 -62.667 -78 -132.334 -210 -209.001c76 -27.333 173.333 -41 292 -41v-180zM586 489.003l-10 27c-6.66699 19.333 -31 29 -73 29h-287l197 -207c115.333 60 173 110.333 173 151z" />
    <glyph glyph-name="uFED2" unicode="&#x641;" horiz-adv-x="1618" arabic-form="final" 
d="M1359 1054c0 -35.333 -12 -65.167 -36 -89.5s-53.667 -36.5 -89 -36.5c-90.667 0 -136 42 -136 126c0 70.667 43.333 106 130 106c87.333 0 131 -35.333 131 -106zM1643 -0.000976562c-209.333 0 -338.668 13.335 -388.001 40.002c-16.667 -24.667 -130.667 -37 -342 -37
c-30 -0.666992 -130 -1.33398 -300 -2.00098l-299 -1c-72.667 -0 -132 31.333 -178 94c-41.333 57.333 -62 123.666 -62 198.999v272h181v-247c0 -92 44.333 -138 133 -138h623c-67.333 75.333 -101 157.333 -101 246c0 89.333 32.333 161.333 97 216
c61.333 51.333 137.333 77 228 77c92.667 0 166.334 -33.333 221.001 -100c52 -62 78 -140 78 -234c0 -74.667 -21.667 -143 -65 -205h174v-180zM1370 385.001c0 44 -14.5 81.667 -43.5 113s-65.167 47 -108.5 47c-36.667 0 -69 -13.5 -97 -40.5s-42 -58.5 -42 -94.5
c0 -70 60.667 -133.667 182 -191c72.667 44.667 109 100 109 166z" />
    <glyph glyph-name="uFED3" unicode="&#x641;" horiz-adv-x="915" arabic-form="initial" 
d="M573 1098c0 -34.667 -12.5 -64.167 -37.5 -88.5s-54.833 -36.5 -89.5 -36.5c-88 0 -132 41.667 -132 125c0 71.333 42.333 107 127 107c88 0 132 -35.667 132 -107zM800 284c4 -77.333 -24.3311 -144.669 -84.998 -202.002c-59.333 -54.667 -128 -82 -206 -82h-540v180
h542c66 0 99 44.667 99 134c-93.333 0.666992 -199 6.33398 -317 17.001c-99.333 36.667 -149 118.334 -149 245.001c0 87.333 27.333 157.833 82 211.5s125.667 80.5 213 80.5c71.333 0 136.666 -19 195.999 -57c95.333 -60 146.666 -160.667 153.999 -302z
M599.002 483.997c-4.66699 132.667 -61 199 -169 199c-79.333 0 -119 -31.667 -119 -95c0 -50.667 15 -82 45 -94c12.667 -5.33301 50 -8.33301 112 -9z" />
    <glyph glyph-name="uFED4" unicode="&#x641;" horiz-adv-x="856" arabic-form="medial" 
d="M556 1041c0 -34 -12.167 -63.333 -36.5 -88s-53.833 -37 -88.5 -37c-88.667 0 -133 41.667 -133 125c0 72 42.667 108 128 108c86.667 0 130 -36 130 -108zM904 0c-13.333 2.66699 -48.666 4.33301 -105.999 5l-178 3c-62 0.666992 -119 14 -171 40
c-55.333 -32 -226 -48 -512 -48v180h266c-66 74 -99 153.333 -99 238c0 94 30.667 168 92 222c59.333 52.667 136.666 79 231.999 79c89.333 0 162 -31.667 218 -95c54.667 -60 82 -135.333 82 -226c0 -83.333 -21.667 -156 -65 -218h241v-180zM564 384.999
c0 40 -14.667 76.667 -44 110s-64 50 -104 50c-39.333 0 -73 -13.167 -101 -39.5s-42 -58.833 -42 -97.5c0 -74 60.667 -137 182 -189c72.667 54 109 109.333 109 166z" />
    <glyph glyph-name="uFED6" unicode="&#x642;" horiz-adv-x="1350" arabic-form="final" 
d="M1156 773c0 -31.333 -11.167 -57 -33.5 -77s-48.833 -30 -79.5 -30c-85.333 0 -128 35.667 -128 107c0 65.333 38.667 98 116 98c83.333 0 125 -32.667 125 -98zM809 773c0 -31.333 -11.168 -57 -33.501 -77s-49.166 -30 -80.499 -30c-84.667 0 -127 35.667 -127 107
c0 65.333 38.667 98 116 98c83.333 0 125 -32.667 125 -98zM1385 0l-149 0.00292969c0 -126 -44.5 -233.333 -133.5 -322s-196.5 -133 -322.5 -133h-280c-121.333 0 -224 47.333 -308 142c-81.333 91.333 -122 198.666 -122 321.999v376h180v-396
c0 -68 34.667 -130.667 104 -188c57.333 -47.333 118 -71 182 -71h234c77.333 0 142.833 25.667 196.5 77s83.5 115.666 89.5 192.999c-172 0 -280.667 8.33301 -326 25c-106.667 39.333 -160 125.666 -160 258.999c0 87.333 33 157 99 209c60 48 135 72 225 72
c106 0 191 -38.333 255 -115c60 -71.333 90.667 -161.333 92 -270h144v-180zM1061 180.003c0 57.333 -17.5 105.167 -52.5 143.5s-81.167 57.5 -138.5 57.5c-82.667 0 -124 -30.333 -124 -91c0 -46.667 20 -78.667 60 -96c21.333 -9.33301 106.333 -14 255 -14z" />
    <glyph glyph-name="uFED7" unicode="&#x642;" horiz-adv-x="915" arabic-form="initial" 
d="M733 1061c0 -30.667 -11.168 -56 -33.501 -76s-49.166 -30 -80.499 -30c-83.333 0 -125 35.333 -125 106c0 66 38 99 114 99c83.333 0 125 -33 125 -99zM387.999 1061c0 -30.667 -11.168 -56 -33.501 -76s-49.166 -30 -80.499 -30c-83.333 0 -125 35.333 -125 106
c0 66 38.333 99 115 99c82.667 0 124 -33 124 -99zM799.998 284c4 -77.333 -24.3311 -144.669 -84.998 -202.002c-59.333 -54.667 -128 -82 -206 -82h-540v180h542c66 0 99 44.667 99 134c-93.333 0.666992 -199 6.33398 -317 17.001
c-99.333 36.667 -149 118.334 -149 245.001c0 87.333 27.333 157.833 82 211.5s125.667 80.5 213 80.5c71.333 0 136.666 -19 195.999 -57c95.333 -60 146.666 -160.667 153.999 -302zM599 483.997c-4.66699 132.667 -61 199 -169 199c-79.333 0 -119 -31.667 -119 -95
c0 -50.667 15 -82 45 -94c12.667 -5.33301 50 -8.33301 112 -9z" />
    <glyph glyph-name="uFED8" unicode="&#x642;" horiz-adv-x="856" arabic-form="medial" 
d="M691 1064c0 -31.333 -10.833 -56.833 -32.5 -76.5s-48.167 -29.5 -79.5 -29.5c-84 0 -126 35.333 -126 106c0 66 38.333 99 115 99c82 0 123 -33 123 -99zM348 1064c0 -31.333 -11.168 -56.833 -33.501 -76.5s-49.166 -29.5 -80.499 -29.5
c-83.333 0 -125 35.333 -125 106c0 66 38 99 114 99c83.333 0 125 -33 125 -99zM903.999 0c-13.333 2.66699 -48.666 4.33301 -105.999 5l-178 3c-62 0.666992 -119 14 -171 40c-55.333 -32 -226 -48 -512 -48v180h266c-66 74 -99 153.333 -99 238c0 94 30.667 168 92 222
c59.333 52.667 136.666 79 231.999 79c89.333 0 162 -31.667 218 -95c54.667 -60 82 -135.333 82 -226c0 -83.333 -21.667 -156 -65 -218h241v-180zM563.999 384.999c0 40 -14.667 76.667 -44 110s-64 50 -104 50c-39.333 0 -73 -13.167 -101 -39.5s-42 -58.833 -42 -97.5
c0 -74 60.667 -137 182 -189c72.667 54 109 109.333 109 166z" />
    <glyph glyph-name="uFEDE" unicode="&#x644;" horiz-adv-x="1408" arabic-form="final" 
d="M1446 0c-96.667 0 -163.999 28.332 -201.999 84.999c0 -150.667 -37 -275.667 -111 -375c-82.667 -110 -197.334 -165 -344.001 -165h-278c-123.333 0 -227 47 -311 141c-80.667 90.667 -121 198.334 -121 323.001v376h176v-396c0 -77.333 29.333 -141.333 88 -192
c56 -48 123.333 -72 202 -72h233c78 0 144 24.333 198 73c56.667 50 85 113.667 85 191v1165h180v-848c0 -82.667 68.333 -124.667 205 -126v-180z" />
    <glyph glyph-name="uFEDF" unicode="&#x644;" horiz-adv-x="516" arabic-form="initial" 
d="M388 275c0 -86.667 -25.833 -154.167 -77.5 -202.5s-121.5 -72.5 -209.5 -72.5h-137v180c93.333 0 134 -0.333008 122 -1c58 4 94.667 18.667 110 44c10 15.333 15 59 15 131v800h177v-879z" />
    <glyph glyph-name="uFEE0" unicode="&#x644;" horiz-adv-x="598" arabic-form="medial" 
d="M635 0l-54 -0.000976562c-116.667 0 -203.667 23.333 -261 70c-43.333 -36 -82.333 -57.333 -117 -64c-22.667 -4 -101.667 -6 -237 -6v180c36 -1.33301 79 -2 129 -2c57.333 0 95.333 15.667 114 47c12.667 21.333 19 64.333 19 129v800h180v-836
c0 -65.333 19.333 -106 58 -122c18.667 -7.33301 75 -12.666 169 -15.999v-180z" />
    <glyph glyph-name="uFEE2" unicode="&#x645;" horiz-adv-x="1233" arabic-form="final" 
d="M1281 0c-74.667 0 -127.333 6.66504 -158 19.998c-39.333 16.667 -77.333 53.667 -114 111c-37.333 -94.667 -113.333 -142 -228 -142c-98 0 -177.667 31 -239 93s-92 142.333 -92 241v220c-54.667 0 -101 -16 -139 -48c-40.667 -33.333 -61 -76.666 -61 -129.999v-820
h-176v798c0 116.667 29.333 207.667 88 273c62 68.667 150.667 103 266 103h365c192 0 288 -140.333 288 -421c0 -77.333 66.667 -116.666 200 -117.999v-180zM906.001 330.998c0 92 -9.99902 148.333 -29.999 169c-25.333 26.667 -109.333 41 -252 43v-253
c0 -38 15 -68.333 45 -91c27.333 -20 60.666 -30 99.999 -30c91.333 0 137 54 137 162z" />
    <glyph glyph-name="uFEE3" unicode="&#x645;" horiz-adv-x="843" arabic-form="initial" 
d="M781 338c0 -103.333 -25.666 -188.001 -76.999 -254.001c-56 -72.667 -134.333 -109 -235 -109c-76.667 0 -144.334 22.667 -203.001 68c-58 -25.333 -159.667 -39.666 -305 -42.999v180c102 0 161.667 10 179 30c5.33301 6.66699 9 52.667 11 138
c6 247.333 113.667 371 323 371c100 0 178 -40 234 -120c48.667 -70 73 -157 73 -261zM624.001 347.999c0 130 -51.667 195 -155 195c-105.333 0 -158 -67.333 -158 -202c0 -124.667 52.667 -187 158 -187c103.333 0 155 64.667 155 194z" />
    <glyph glyph-name="uFEE4" unicode="&#x645;" horiz-adv-x="904" arabic-form="medial" 
d="M930 0c-59.333 0 -102.335 5.33398 -129.002 16.001c-34.667 14.667 -65.667 44 -93 88c-51.333 -86 -134 -129 -248 -129c-42 0 -85.833 12.667 -131.5 38s-80.167 55.666 -103.5 90.999c-13.333 -68 -104.333 -102.667 -273 -104v180c100 0 159 10 177 30
c9.33301 10 14 56 14 138c0 109.333 25.667 196.666 77 261.999c56.667 72.667 138.334 109 245.001 109c97.333 0 174 -38.667 230 -116c50 -68.667 76 -153.667 78 -255c0.666992 -38 1.33398 -62.333 2.00098 -73c4 -43.333 20 -70.666 48 -81.999
c13.333 -6 49 -10.333 107 -13v-180zM609.998 353.001c0 126.667 -50.667 190 -152 190c-105.333 0 -158 -67.333 -158 -202c0 -124.667 52.667 -187 158 -187c101.333 0 152 66.333 152 199z" />
    <glyph glyph-name="uFEE6" unicode="&#x646;" horiz-adv-x="1361" arabic-form="final" 
d="M736 606c0 -34 -12.167 -63 -36.5 -87s-53.833 -36 -88.5 -36c-90.667 0 -136 41 -136 123c0 72 43.667 108 131 108c86.667 0 130 -36 130 -108zM1440 0c-98.667 0 -165 28.333 -199 85c0 -150.667 -37 -275.667 -111 -375c-82 -110 -196.667 -165 -344 -165h-277
c-123.333 0 -227 47 -311 141c-81.333 90.667 -122 198.334 -122 323.001v376h177v-396c0 -77.333 29.333 -141.333 88 -192c56 -48 123.333 -72 202 -72h232c78 0 144.833 24.667 200.5 74s83.5 112.666 83.5 189.999v576h180v-259c0 -82.667 67 -124.667 201 -126v-180z
" />
    <glyph glyph-name="uFEE7" unicode="&#x646;" horiz-adv-x="586" arabic-form="initial" 
d="M343 848c0 -35.333 -12.167 -65.333 -36.5 -90s-53.833 -37 -88.5 -37c-91.333 0 -137 42.333 -137 127c0 71.333 43.333 107 130 107c88 0 132 -35.667 132 -107zM520 293c0 -77.333 -24 -144.665 -72 -201.998c-50.667 -60.667 -113.667 -91 -189 -91h-295v180
c188.667 0 293.667 3.66699 315 11c40 14.667 60 68.667 60 162c0 23.333 -0.5 58.666 -1.5 105.999s-1.5 82.666 -1.5 105.999h184v-272z" />
    <glyph glyph-name="uFEE8" unicode="&#x646;" horiz-adv-x="703" arabic-form="medial" 
d="M343 848c0 -35.333 -12.167 -65.333 -36.5 -90s-53.833 -37 -88.5 -37c-91.333 0 -137 42.333 -137 127c0 71.333 43.333 107 130 107c88 0 132 -35.667 132 -107zM735 0l-59.001 0.00195312c-113.333 0 -196.666 23.333 -249.999 70c-60 -46.667 -117.667 -70 -173 -70
h-296v180c186 0 290.667 4.33301 314 13c40 14 60 67.333 60 160c0 23.333 -0.333008 58.666 -1 105.999s-1 82.666 -1 105.999h182v-247c0 -88.667 74.667 -134.667 224 -138v-180z" />
    <glyph glyph-name="uFEEA" unicode="&#x647;" horiz-adv-x="1031" arabic-form="final" 
d="M1068 0c-78.667 0 -135.999 10.332 -171.999 30.999c-18 10.667 -80.667 65.667 -188 165c-68 -144 -177.667 -216 -329 -216c-99.333 0 -181.333 32.333 -246 97s-97 146.667 -97 246c0 104 69.667 225.667 209 365l-51 58l121 122l539 -573
c47.333 -50 77.666 -79 90.999 -87c25.333 -15.333 66.333 -24.666 123 -27.999v-180zM553.001 310.999c0 44 -11.332 77 -33.999 99l-145 144c-56 -52.667 -91 -88 -105 -106c-35.333 -45.333 -53 -91 -53 -137c0 -46.667 15.667 -84.5 47 -113.5
s70.666 -43.5 117.999 -43.5c46 0 86.167 14.833 120.5 44.5s51.5 67.167 51.5 112.5z" />
    <glyph glyph-name="uFEEB" unicode="&#x647;" horiz-adv-x="1171" arabic-form="initial" 
d="M1093 239c0 -79.333 -29.6689 -150.667 -89.002 -214s-128 -95 -206 -95c-95.333 0 -218.666 44.333 -369.999 133c-77.333 -39.333 -163.666 -59.333 -258.999 -60l-200 -3v180h250c-66 86.667 -99 169.334 -99 248.001c0 85.333 27.333 155.5 82 210.5
s125 82.5 211 82.5c77.333 0 149.333 -32.333 216 -97l-118 122l135 122c298 -284.667 447 -494.334 447 -629.001zM903.998 227.999c0 72 -79.333 188 -238 348c36.667 -41.333 55 -98.333 55 -171c0 -114.667 -37 -191 -111 -229c68 -40.667 126.667 -61 176 -61
c78.667 0 118 37.667 118 113zM547.998 414.999c0 40.667 -15 74.333 -45 101s-65.667 40 -107 40c-32.667 0 -59 -13.667 -79 -41c-18.667 -24.667 -28 -53.667 -28 -87c0 -78 48 -135.667 144 -173c76.667 34 115 87.333 115 160z" />
    <glyph glyph-name="uFEEC" unicode="&#x647;" horiz-adv-x="798" arabic-form="medial" 
d="M831 0l-227 -0.000976562c88 -60.667 132 -148.667 132 -264c0 -139.333 -88.333 -209 -265 -209c-214.667 0 -331.334 92.333 -350.001 277l-20 196h-155v180h147c-9.33301 122.667 -14 189.667 -14 201c0 223.333 112 335 336 335
c90.667 0 163.334 -24.667 218.001 -74c57.333 -52 86 -122.667 86 -212c0 -101.333 -40 -184.666 -120 -249.999h232v-180zM550 432.999c0 78 -40.001 117 -120.001 117c-114 0 -171 -76.333 -171 -229c0 -9.33301 1.66699 -56.333 5 -141
c76.667 0 142.334 22.667 197.001 68c59.333 48 89 109.667 89 185zM585.999 -208.001c0 69.333 -37 125.333 -111 168c-62.667 36 -131.667 54 -207 54c0 -222.667 61 -334 183 -334c90 0 135 37.333 135 112z" />
    <glyph glyph-name="uFEEE" unicode="&#x648;" horiz-adv-x="893" arabic-form="final" 
d="M919 0l-119 -0.00195312c0 -132 -44.167 -240.833 -132.5 -326.5s-198.833 -128.5 -331.5 -128.5h-232l-25 180h227c85.333 0 156.333 24.667 213 74s86.667 116.333 90 201c-148.667 0 -258 20.333 -328 61c-91.333 53.333 -137 149 -137 287
c0 150.667 36.333 256.334 109 317.001c42 36 113 54 213 54c143.333 0 239.333 -59.333 288 -178c28 -69.333 43.333 -189.666 46 -360.999h119v-180zM615 179.998v171c0 50 -12 93 -36 129c-27.333 40.667 -65 61 -113 61c-57.333 0 -96 -19.333 -116 -58
c-14 -28 -21 -74.333 -21 -139c0 -76 31.667 -124.667 95 -146c34 -12 97.667 -18 191 -18z" />
    <glyph glyph-name="uFEF0" unicode="&#x649;" horiz-adv-x="1289" arabic-form="final" 
d="M1318 0l-167 -0.000976562l9 -88c0 -104.667 -39.667 -192.667 -119 -264c-77.333 -68.667 -169 -103 -275 -103h-277c-142 0 -253.667 52 -335 156c-74 95.333 -111 216 -111 362v322h180v-391c0 -86 30 -153.333 90 -202c55.333 -44.667 127 -67 215 -67h231
c64 0 116.667 17 158 51c44 36.667 66 86.667 66 150c0 38.667 -55 62.334 -165 71.001c-20 2 -89.667 3 -209 3l-16 180h725v-180z" />
    <glyph glyph-name=".notdef" horiz-adv-x="1024" 
d="M128 0v1360h768v-1360h-768zM256 128h512v1104h-512v-1104z" />
    <glyph glyph-name="space" unicode=" " horiz-adv-x="469" 
 />
    <glyph glyph-name="exclam" unicode="!" horiz-adv-x="469" 
d="M326 759c0 -8 -4 -53.333 -12 -136l-28 -274h-95l-42 410v395h177v-395zM371 120c0 -80 -45.667 -120 -137 -120c-83.333 0 -125 40 -125 120c0 73.333 45 110 135 110c84.667 0 127 -36.667 127 -110z" />
    <glyph glyph-name="percent" unicode="%" horiz-adv-x="1471" 
d="M1401 45c0 -72.667 -30.667 -135.333 -92 -188c-58 -50.667 -124 -76 -198 -76c-72 0 -137 26.667 -195 80c-60 54 -90 117 -90 189s30.5 137.667 91.5 197s127.833 89 200.5 89c75.333 0 141.333 -29.5 198 -88.5s85 -126.5 85 -202.5zM1278 56.001
c0 40 -16.833 76.333 -50.5 109s-70.167 49 -109.5 49c-44 0 -83.167 -17.167 -117.5 -51.5s-51.5 -73.5 -51.5 -117.5c0 -48.667 25.333 -89 76 -121c28.667 -18.667 59.667 -28 93 -28c40.667 0 77.5 16.333 110.5 49s49.5 69.667 49.5 111zM1129 930.001l-646 -1174h-174
l640 1174h180zM643 658.001c0 -73.333 -31.668 -136.999 -95.001 -190.999c-60 -51.333 -127.333 -77 -202 -77c-73.333 0 -138 27.167 -194 81.5s-84 118.166 -84 191.499c0 74 29.333 138.833 88 194.5s125.334 83.5 200.001 83.5c72 0 137.833 -29.333 197.5 -88
s89.5 -123.667 89.5 -195zM515.999 664.002c0 41.333 -17.666 77.667 -52.999 109s-74.333 47 -117 47c-43.333 0 -80.333 -17 -111 -51s-46 -72.667 -46 -116c0 -42.667 18 -78.334 54 -107.001c33.333 -27.333 71.666 -41 114.999 -41c42.667 0 79.667 15.833 111 47.5
s47 68.834 47 111.501z" />
    <glyph glyph-name="parenleft" unicode="(" horiz-adv-x="721" 
d="M643 1399c-108 -208.667 -184.334 -379.002 -229.001 -511.002c-62.667 -184.667 -94 -368 -94 -550c0 -230.667 24.667 -437 74 -619c48.667 -177.333 130.667 -368.333 246 -573h-99c-136.667 196.667 -235.667 376.334 -297 539.001
c-72.667 190.667 -109 392.334 -109 605.001c0 199.333 40 394.333 120 585c54.667 131.333 152.334 306 293.001 524h95z" />
    <glyph glyph-name="parenright" unicode=")" horiz-adv-x="721" 
d="M584 266c0 -204.667 -39.333 -401.667 -118 -591c-54.667 -132.667 -153 -309 -295 -529h-95c215.333 399.333 323 753.333 323 1062c0 247.333 -24.333 454.333 -73 621c-38.667 132.667 -121 322.667 -247 570h99c136 -202 234.333 -380.333 295 -535
c74 -190.667 111 -390 111 -598z" />
    <glyph glyph-name="asterisk" unicode="*" horiz-adv-x="680" 
d="M610 113l-20 -40l-236 132v-273h-45v273l-235 -135l-26 39l236 135l-236 137l25 43l236 -134v271h45v-271l234 136l22 -41l-234 -137zM376 248l-22 42h-45l-25 -46l25 -39h45z" />
    <glyph glyph-name="plus" unicode="+" horiz-adv-x="1275" 
d="M1191 239h-466v-464h-171v464h-464v176h464v464h171v-464h466v-176z" />
    <glyph glyph-name="comma" unicode="," horiz-adv-x="264" 
d="M4 34c0 73.333 45.332 110 135.999 110c54.667 0 91 -14.333 109 -43c12.667 -20 19 -59 19 -117c0 -108 -8.33301 -184 -25 -228c-28.667 -74 -87.667 -115.333 -177 -124v65c52.667 5.33301 88.334 30.333 107.001 75c9.33301 25.333 15.333 71.333 18 138
c-124.667 0 -187 41.333 -187 124z" />
    <glyph glyph-name="hyphen" unicode="-" horiz-adv-x="1149" 
d="M1076 239h-981v177h981v-177z" />
    <glyph glyph-name="period" unicode="." horiz-adv-x="564" 
d="M416 96c0 -79.333 -45.667 -119 -137 -119c-85.333 0 -128 39.667 -128 119c0 74.667 46 112 138 112c84.667 0 127 -37.333 127 -112z" />
    </font>
</defs>
</svg>
